<?xml version="1.0" encoding="UTF-8" standalone="no"?>
<!-- Created with Inkscape (http://www.inkscape.org/) -->

<svg
   xmlns:dc="http://purl.org/dc/elements/1.1/"
   xmlns:cc="http://creativecommons.org/ns#"
   xmlns:rdf="http://www.w3.org/1999/02/22-rdf-syntax-ns#"
   xmlns:svg="http://www.w3.org/2000/svg"
   xmlns="http://www.w3.org/2000/svg"
   xmlns:sodipodi="http://sodipodi.sourceforge.net/DTD/sodipodi-0.dtd"
   xmlns:inkscape="http://www.inkscape.org/namespaces/inkscape"
   width="510.18182mm"
   height="246.47408mm"
   viewBox="0 0 1807.7309 873.33333"
   id="svg4434"
   version="1.1"
   inkscape:version="0.91 r13725"
   sodipodi:docname="selective_recording.svg"
   inkscape:export-filename="C:\Users\aroberts\talks.git\MIDAS_DAQ\selective_recording.png"
   inkscape:export-xdpi="90"
   inkscape:export-ydpi="90">
  <defs
     id="defs4436">
    <clipPath
       clipPathUnits="userSpaceOnUse"
       id="clipPath5183">
      <rect
         style="fill:none;fill-opacity:1;stroke:#535353;stroke-width:3.5;stroke-linecap:butt;stroke-linejoin:round;stroke-miterlimit:4;stroke-dasharray:none;stroke-dashoffset:0;stroke-opacity:1"
         id="rect5185"
         width="200"
         height="165.71428"
         x="-115.76414"
         y="758.07648"
         ry="19.5" />
    </clipPath>
  </defs>
  <sodipodi:namedview
     id="base"
     pagecolor="#ffffff"
     bordercolor="#666666"
     borderopacity="1.0"
     inkscape:pageopacity="0.0"
     inkscape:pageshadow="2"
     inkscape:zoom="0.49497475"
     inkscape:cx="884.96653"
     inkscape:cy="651.24824"
     inkscape:document-units="px"
     inkscape:current-layer="layer1"
     showgrid="false"
     inkscape:window-width="1600"
     inkscape:window-height="838"
     inkscape:window-x="-8"
     inkscape:window-y="-8"
     inkscape:window-maximized="1"
     fit-margin-top="0"
     fit-margin-left="0"
     fit-margin-right="0"
     fit-margin-bottom="0" />
  <metadata
     id="metadata4439">
    <rdf:RDF>
      <cc:Work
         rdf:about="">
        <dc:format>image/svg+xml</dc:format>
        <dc:type
           rdf:resource="http://purl.org/dc/dcmitype/StillImage" />
        <dc:title></dc:title>
      </cc:Work>
    </rdf:RDF>
  </metadata>
  <g
     inkscape:label="Layer 1"
     inkscape:groupmode="layer"
     id="layer1"
     transform="translate(1180.6842,-310.2771)">
    <rect
       style="fill:#000000;fill-opacity:0.04469275;stroke:none;stroke-width:3.69237852;stroke-linecap:butt;stroke-linejoin:round;stroke-miterlimit:4;stroke-dasharray:none;stroke-dashoffset:0;stroke-opacity:1"
       id="rect5234-2"
       width="1795.6829"
       height="165.5219"
       x="-1171.4933"
       y="546.74414"
       ry="28.085417" />
    <rect
       style="fill:#000000;fill-opacity:0.04469275;stroke:none;stroke-width:3.69237852;stroke-linecap:butt;stroke-linejoin:round;stroke-miterlimit:4;stroke-dasharray:none;stroke-dashoffset:0;stroke-opacity:1"
       id="rect5234"
       width="1803.7642"
       height="211.98891"
       x="-1176.7175"
       y="310.2771"
       ry="35.969845" />
    <g
       id="g5111"
       transform="translate(38.385797,-30.406102)">
      <path
         inkscape:connector-curvature="0"
         id="path4984"
         d="m -741.42857,453.79078 c 1.71561,-1.52358 8.18489,7.66387 10,8.57143 0.85183,0.42591 2.1837,-0.67344 2.85714,0 0.33672,0.33671 -0.33672,1.09185 0,1.42857 0.33672,0.33671 0.95238,0 1.42857,0 0.47619,0 0.95238,0 1.42857,0 0.47619,0 1.09185,0.33671 1.42857,0 0.33672,-0.33672 -0.21296,-1.00266 0,-1.42857 0.60234,-1.20468 2.11004,-1.73648 2.85715,-2.85715 0.59064,-0.88596 0.67564,-2.10422 1.42857,-2.85714 0.0647,-0.0648 6.46929,0 7.14285,0 2.38096,0 4.76191,0 7.14286,0 0.47619,0 1.09185,-0.33672 1.42857,0 0.33672,0.33672 -0.33672,1.09185 0,1.42857 0.33672,0.33672 0.95238,0 1.42857,0 0.74703,0 5.33866,0.18782 5.71429,0 0.60234,-0.30117 0.82623,-1.1274 1.42857,-1.42857 0.36936,-0.18468 7.55886,0 8.57143,0 1.01257,0 8.20207,-0.18468 8.57143,0 0.60234,0.30117 0.82623,1.1274 1.42857,1.42857 0.42592,0.21296 1.09185,-0.33672 1.42857,0 2.95577,2.95577 -4.5168,-0.11554 1.42857,2.85714 0.42592,0.21296 1.09186,-0.33671 1.42857,0 1.90477,1.90477 -2.38095,1.42858 1.42858,1.42858 3.35025,0 -0.67344,-0.33672 2.85714,1.42857 0.43476,0.21738 3.64234,0 4.28571,0 0.47619,0 1.09186,0.33671 1.42857,0 0.33672,-0.33672 -0.42591,-1.21562 0,-1.42857 1.27776,-0.63888 2.85715,0 4.28572,0 0.95238,0 1.90476,0 2.85714,0 0.47619,0 1.42857,-0.47619 1.42857,0 0,0.47619 -1.90476,0 -1.42857,0 2.85714,0 5.71429,0 8.57143,0 0.47619,0 0.95238,0 1.42857,0 0.47619,0 1.00265,0.21295 1.42857,0 0.60234,-0.30117 0.82624,-1.12741 1.42857,-1.42858 0.77499,-0.38749 5.3234,0.39089 5.71429,0 0.33672,-0.33671 -0.33672,-1.09185 0,-1.42857 0.33672,-0.33671 0.95238,0 1.42857,0 0.47619,0 0.95238,0 1.42857,0 2.38095,0 4.76191,0 7.14286,0 0.95238,0 1.90476,0 2.85714,0 0.47619,0 1.42857,-0.47619 1.42857,0 0,0.47619 -0.95238,0 -1.42857,0"
         style="fill:none;fill-rule:evenodd;stroke:#000000;stroke-width:1px;stroke-linecap:butt;stroke-linejoin:miter;stroke-opacity:1" />
      <path
         inkscape:connector-curvature="0"
         id="path4986"
         d="m -737.14286,491.21935 c 4.28571,0 8.57143,0 12.85714,0 0.47619,0 1.09186,-0.33672 1.42857,0 0.95238,1.42857 1.90477,2.85714 2.85715,4.28571 0,0.47619 -0.21296,1.00266 0,1.42857 0.60234,1.20468 2.2548,1.65247 2.85714,2.85715 0.21296,0.42592 -0.33672,1.09185 0,1.42857 0.33672,0.33672 1.09185,0.33672 1.42857,0 0.33672,-0.33672 -0.21296,-1.00265 0,-1.42857 0.30117,-0.60234 1.1274,-0.82624 1.42857,-1.42857 0.21296,-0.42592 -0.33672,-1.09186 0,-1.42858 0.33672,-0.33671 0.95238,0 1.42857,0 0.47619,0 0.95238,0 1.42858,0 5.71428,0 11.42857,0 17.14285,0 0.47619,0 0.95238,0 1.42857,0 0.47619,0 1.09186,0.33672 1.42858,0 0.33671,-0.33671 -0.33672,-1.09185 0,-1.42857 0.71428,-0.71428 3.57142,0.71429 4.28571,0 2.95576,-2.95576 -4.5168,0.11555 1.42857,-2.85714 0.42592,-0.21296 0.95238,0 1.42857,0 0.47619,0 0.95238,0 1.42857,0 2.85715,0 5.71429,0 8.57143,0 9.52381,0 19.04762,0 28.57143,0 2.85714,0 5.71429,0 8.57143,0 0.47619,0 1.09185,0.33672 1.42857,0 0.33672,-0.33672 -0.33672,-1.09185 0,-1.42857 0.71429,-0.71429 3.57143,0.71428 4.28572,0 0,-3.80953 -0.4762,0.47619 1.42857,-1.42857 0.33671,-0.33672 -0.33672,-1.09186 0,-1.42857 0.33671,-0.33672 0.95238,0 1.42857,0 0.47619,0 0.95238,0 1.42857,0 0.47619,0 1.90476,0 1.42857,0 -0.95238,0 -3.80952,0 -2.85714,0 1.42857,0 2.89979,0.34648 4.28571,0 0.65333,-0.16334 0.82624,-1.12741 1.42857,-1.42858 0.42592,-0.21295 1.09186,0.33672 1.42858,0 0.33671,-0.33671 -0.33672,-1.09185 0,-1.42857 0.0459,-0.0459 3.93924,0 4.28571,0"
         style="fill:none;fill-rule:evenodd;stroke:#000000;stroke-width:1px;stroke-linecap:butt;stroke-linejoin:miter;stroke-opacity:1" />
      <path
         inkscape:connector-curvature="0"
         id="path4988"
         d="m -750,518.07649 c 1.90476,-0.47619 3.78903,-1.04352 5.71429,-1.42857 1.58826,-0.31766 4.04471,0 5.71428,0 3.80952,0 7.61905,0 11.42857,0 2.85715,0 5.71429,0 8.57143,0 0.47619,0 1.09185,-0.33672 1.42857,0 0.33672,0.33671 -0.33672,1.09185 0,1.42857 0.42269,0.42269 4.82941,-0.44244 5.71429,0 0.60234,0.30117 0.82623,1.1274 1.42857,1.42857 0.37563,0.18781 4.96726,0 5.71429,0 3.80952,0 7.61904,0 11.42857,0 1.90476,0 3.80952,0 5.71428,0 0.95238,0 3.80953,0 2.85715,0 -0.95239,0 -3.80953,0 -2.85715,0 1.42857,0 2.85715,0 4.28572,0 0.47619,0 1.00265,0.21296 1.42857,0 0.60234,-0.30117 0.78969,-1.21561 1.42857,-1.42857 0.81266,-0.27089 5.79737,0 7.14286,0 0.47619,0 1.09185,0.33671 1.42857,0 0.33672,-0.33672 -0.33672,-1.09186 0,-1.42857 0.33672,-0.33672 1.09185,0.33671 1.42857,0 0.33672,-0.33672 -0.33672,-1.09186 0,-1.42858 0.71429,-0.71428 3.57143,0.71429 4.28571,0 0.33672,-0.33671 -0.33671,-1.09185 0,-1.42857 0.046,-0.0459 3.93925,0 4.28572,0 1.90476,0 3.80952,0 5.71428,0 0.47619,0 1.90477,0 1.42858,0 -0.95239,0 -3.80953,0 -2.85715,0 0.0494,0 4.42879,0 5.71429,0 0.95238,0 3.80952,0 2.85714,0 -0.95238,0 -2.85714,-0.95238 -2.85714,0 0,1.0648 2.10422,0.67565 2.85714,1.42857 0.33672,0.33672 -0.33672,1.09186 0,1.42858 0.71429,0.71428 3.57143,-0.71429 4.28572,0 1.90476,1.90476 -2.38096,1.42857 1.42857,1.42857 1.42857,0 2.85714,0 4.28571,0 0.47619,0 1.42857,-0.47619 1.42857,0 0,0.47619 -1.90476,0 -1.42857,0 1.42857,0 2.85714,0 4.28572,0 0.47619,0 1.90476,0 1.42857,0 -0.95238,0 -3.80953,0 -2.85715,0 1.42858,0 2.85715,0 4.28572,0 3.33333,0 6.66666,0 10,0 0.47619,0 1.09185,0.33671 1.42857,0 0.33672,-0.33672 -0.33672,-1.09186 0,-1.42857 0.33672,-0.33672 1.42857,-0.47619 1.42857,0 0,0.47619 -0.95238,0 -1.42857,0"
         style="fill:none;fill-rule:evenodd;stroke:#000000;stroke-width:1px;stroke-linecap:butt;stroke-linejoin:miter;stroke-opacity:1" />
    </g>
    <g
       id="g5106"
       transform="translate(0,-30)">
      <path
         inkscape:connector-curvature="0"
         id="path4990"
         d="m -438.57144,493.79078 c 15.71429,0 31.42857,0 47.14286,0 3.33333,0 6.66667,0 10,0 0.47619,0 1.09185,-0.33672 1.42857,0 0.33672,0.33671 -0.33672,1.09185 0,1.42857 0.71429,0.71428 3.57143,-0.71429 4.28572,0 0.33671,0.33671 -0.33672,1.09185 0,1.42857 0.71428,0.71428 3.57142,-0.71429 4.28571,0 0.33672,0.33672 -0.33672,1.09185 0,1.42857 0.0459,0.0459 3.93925,0 4.28571,0 1.90477,0 3.80953,0 5.71429,0 0.47619,0 0.95238,0 1.42857,0 0.47619,0 1.42857,-0.47619 1.42857,0 0,0.47619 -1.90476,0 -1.42857,0 0.95238,0 1.90476,0 2.85714,0 1.90477,0 3.80953,0 5.71429,0 0.47619,0 0.95238,0 1.42857,0 0.47619,0 1.42857,-0.47619 1.42857,0 0,0.47619 -1.42857,0.47619 -1.42857,0 0,-0.67343 0.82623,-1.1274 1.42857,-1.42857 3.80953,0 -0.47619,0.47619 1.42857,-1.42857 0.33672,-0.33672 1.09186,0.33671 1.42858,0 0.67343,-0.67344 -0.67344,-2.18371 0,-2.85715 0.33671,-0.33671 1.09185,0.33672 1.42857,0 0.29205,-0.29205 -0.28321,-3.71929 0,-4.28571 0.30117,-0.60234 1.1274,-0.82623 1.42857,-1.42857 0.28321,-0.56642 -0.29205,-3.99366 0,-4.28572 0.33672,-0.33671 1.09185,0.33672 1.42857,0 0.67343,-0.67343 -0.30117,-1.95363 0,-2.85714 0.33672,-1.01015 1.09185,-1.84699 1.42857,-2.85714 0.15059,-0.45176 -0.33672,-1.09186 0,-1.42857 0.33672,-0.33672 1.09186,0.33671 1.42857,0 0.71429,-0.71429 -0.71428,-3.57143 0,-4.28572 0.33672,-0.33671 1.09186,0.33672 1.42857,0 0.71429,-0.71428 -0.71428,-3.57143 0,-4.28571 0.33672,-0.33672 1.00266,0.21296 1.42858,0 5.94537,-2.97269 -1.5272,0.0986 1.42857,-2.85714 0.0647,-0.0648 6.46929,0 7.14285,0 1.40817,0 4.26531,0 2.85715,0 -8.15886,0 2.66347,-0.19367 2.85714,0 0.33672,0.33671 -0.33672,1.09185 0,1.42857 0.67343,0.67343 2.18371,-0.67344 2.85714,0 0.33672,0.33671 -0.33671,1.09185 0,1.42857 0.33672,0.33672 1.00266,-0.21296 1.42857,0 0.60234,0.30117 0.82624,1.1274 1.42858,1.42857 0.42591,0.21296 1.09185,-0.33672 1.42857,0 0.33671,0.33672 -0.33672,1.09185 0,1.42857 0.33671,0.33672 1.09185,-0.33672 1.42857,0 0.33672,0.33672 -0.33672,1.09186 0,1.42857 0.33672,0.33672 1.09185,-0.33671 1.42857,0 0.33672,0.33672 -0.33672,1.09186 0,1.42857 0.33672,0.33672 1.09185,-0.33671 1.42857,0 0.33672,0.33672 -0.33672,1.09186 0,1.42858 0.33672,0.33671 1.09186,-0.33672 1.42857,0 0.33672,0.33671 -0.33671,1.09185 0,1.42857 0.44236,0.44235 6.70051,-0.44236 7.14286,0 0.33672,0.33671 -0.33672,1.09185 0,1.42857 0.67343,0.67343 2.18371,-0.67344 2.85714,0 0.33672,0.33672 -0.33671,1.09185 0,1.42857 0.33672,0.33672 1.42857,-0.47619 1.42857,0 0,2.02381 -6.66666,-4.04762 1.42858,0 0.42591,0.21296 -0.33672,1.09185 0,1.42857 0.33671,0.33672 1.00265,-0.21296 1.42857,0 0.60234,0.30117 0.82623,1.1274 1.42857,1.42857 0.56642,0.28321 3.99366,-0.29205 4.28571,0 0.33672,0.33672 -0.33671,1.09186 0,1.42857 0.29205,0.29206 3.7193,-0.2832 4.28572,0 1.20467,0.60234 1.65246,2.25481 2.85714,2.85715 0.85184,0.42591 2.18371,-0.67344 2.85714,0 0.33672,0.33671 -0.33671,1.09185 0,1.42857 0.33672,0.33672 1.09186,-0.33672 1.42857,0 0.33672,0.33672 -0.33671,1.09185 0,1.42857 0.71429,0.71429 3.57143,-0.71429 4.28572,0 0.33672,0.33672 -0.33672,1.09185 0,1.42857 0.33672,0.33672 0.95238,0 1.42857,0 0.47619,0 0.95238,0 1.42857,0 1.01258,0 8.20207,-0.18468 8.57143,0 0.60234,0.30117 0.82623,1.1274 1.42857,1.42857 0.36936,0.18468 7.55886,0 8.57143,0 6.19048,0 12.38095,0 18.57143,0 0.47619,0 0.95238,0 1.42857,0 0.47619,0 1.09185,-0.33671 1.42857,0 0.33672,0.33672 -0.33672,1.09186 0,1.42857 0.0459,0.046 3.93925,0 4.28572,0 5.23809,0 10.47619,0 15.71428,0 1.90476,0 3.80953,0 5.71429,0 0.47619,0 0.95238,0 1.42857,0 0.47619,0 1.42857,-0.47619 1.42857,0 0,0.47619 -1.90476,0 -1.42857,0 0.95238,0 1.90476,0 2.85714,0"
         style="fill:none;fill-rule:evenodd;stroke:#000000;stroke-width:1px;stroke-linecap:butt;stroke-linejoin:miter;stroke-opacity:1" />
      <path
         inkscape:connector-curvature="0"
         id="path4994"
         d="m -441.42858,485.21934 c 8.13043,0 16.26087,0 24.3913,0 0.54765,0 5.75482,0.0648 5.80746,0 0.27377,-0.33671 -0.27377,-1.09185 0,-1.42857 0.27377,-0.33671 0.77433,0 1.16149,0 0.38716,0 0.77433,0 1.16149,0 3.09731,0 6.19462,0 9.29193,0 0.38716,0 0.88772,0.33672 1.16149,0 0.27376,-0.33671 -0.27377,-1.09185 0,-1.42857 0.54753,-0.67343 1.77544,0.67344 2.32298,0 0.27377,-0.33672 -0.27377,-1.09185 0,-1.42857 0.27377,-0.33672 0.8152,0.21296 1.16149,0 0.48973,-0.30117 0.67176,-1.1274 1.16149,-1.42857 0.69258,-0.42592 1.77545,0.67343 2.32299,0 0.27376,-0.33672 -0.27377,-1.09186 0,-1.42857 0.27376,-0.33672 0.77432,0 1.16149,0 0.77432,0 1.54865,0 2.32297,0 0.38717,0 1.16149,-0.47619 1.16149,0 0,0.47619 -1.54865,0 -1.16149,0 0.77433,0 1.54866,0 2.32298,0 0.38717,0 0.88773,0.33671 1.16149,0 0.27377,-0.33672 -0.27376,-1.09186 0,-1.42857 0.27377,-0.33672 0.88773,0.33671 1.1615,0 0.27376,-0.33672 -0.27377,-1.09186 0,-1.42858 0.27376,-0.33671 0.88772,0.33672 1.16149,0 0.54753,-0.67343 -0.34629,-2.0053 0,-2.85714 0.48973,-1.20468 1.83325,-1.65246 2.32298,-2.85714 0.34629,-0.85184 -0.54754,-2.18371 0,-2.85714 0.27377,-0.33672 0.88772,0.33671 1.16149,0 0.23745,-0.29206 -0.23026,-3.7193 0,-4.28572 0.24486,-0.60234 0.91662,-0.82623 1.16149,-1.42857 0.36501,-0.89789 -0.36501,-4.8164 0,-5.71429 0.24486,-0.60233 0.91662,-0.82623 1.16149,-1.42857 0.17314,-0.42591 0,-0.95238 0,-1.42857 0,-0.47619 0,-0.95238 0,-1.42857 0,-2.38095 0,-4.7619 0,-7.14286 0,-0.47619 0,-0.95238 0,-1.42857 0,-0.47619 -0.17314,-1.00265 0,-1.42857 0.24486,-0.60234 0.91663,-0.82623 1.1615,-1.42857 0.15014,-0.36936 0,-7.55886 0,-8.57143 0,-0.47619 0,-0.95238 0,-1.42857 0,-0.47619 -0.27377,-1.09186 0,-1.42857 0.27376,-0.33672 0.88772,0.33671 1.16149,0 0.54752,-0.67344 -0.54754,-2.18371 0,-2.85715 0.27376,-0.33671 0.88772,0.33672 1.16149,0 0.27376,-0.33671 0,-0.95238 0,-1.42857 0,-0.47619 0,-0.95238 0,-1.42857 0,-1.01257 -0.15016,-8.20207 0,-8.57143 0.24486,-0.60234 0.91662,-0.82623 1.16148,-1.42857 0.15016,-0.36936 0,-7.55885 0,-8.57143 0,-0.47619 -0.27376,-1.09185 0,-1.42857 0.27377,-0.33672 0.88773,0.33672 1.16149,0 0.27377,-0.33672 0,-0.95238 0,-1.42857 0,-0.95238 -0.34629,-2.00531 0,-2.85714 0.17315,-0.42592 0.98835,0.42592 1.16149,0 0.36502,-0.89789 -0.365,-4.8164 0,-5.71429 0.24487,-0.60234 0.98836,-0.78969 1.16149,-1.42857 0.17709,-0.65341 -0.25841,-5.0786 0,-5.71429 0.24487,-0.60233 0.91664,-0.82623 1.1615,-1.42857 0.17314,-0.42591 -0.27377,-1.09185 0,-1.42857 0.27376,-0.33672 0.88772,0.33672 1.16149,0 0.54753,-0.67343 -0.34629,-2.00531 0,-2.85714 0.24486,-0.60234 0.91663,-0.82623 1.16149,-1.42857 0.17315,-0.42592 -0.27377,-1.09186 0,-1.42857 1.5942,-1.96079 1.16149,2.521 1.16149,2.85714 0,0.47619 0.38716,1.42857 0,1.42857 -0.38716,0 0,-1.90476 0,-1.42857 0,0.33947 -0.13016,5.3941 0,5.71428 0.24486,0.60234 0.91662,0.82624 1.16149,1.42858 0.17314,0.42591 -0.17315,1.00265 0,1.42857 0.24486,0.60234 0.91662,0.82623 1.16149,1.42857 0.17314,0.42592 0.38716,1.42857 0,1.42857 -0.38716,0 0,-1.90476 0,-1.42857 0,0.95238 -0.34629,2.00531 0,2.85714 0.17314,0.42592 0.88773,-0.33672 1.16149,0 0.54753,0.67344 -0.34629,2.00531 0,2.85714 0.24486,0.60234 0.91663,0.82624 1.1615,1.42858 0.17313,0.42591 -0.27377,1.09185 0,1.42857 0.27376,0.33671 0.88772,-0.33672 1.16149,0 0.27375,0.33671 0,0.95238 0,1.42857 0,0.47619 0.38716,1.42857 0,1.42857 -0.38717,0 -0.38717,-1.42857 0,-1.42857 0.54752,0 0.91662,0.82623 1.16148,1.42857 0.17315,0.42592 -0.17314,1.00265 0,1.42857 0.24487,0.60234 0.91663,0.82623 1.16149,1.42857 0.17315,0.42592 -0.27376,1.09186 0,1.42857 0.27377,0.33672 0.8152,-0.21295 1.16149,0 0.48973,0.30117 0.77433,0.95239 1.16149,1.42858 0.38717,0.47619 0.91663,0.82623 1.16149,1.42857 0.17315,0.42592 -0.27376,1.09185 0,1.42857 0.54754,0.67343 1.77545,-0.67344 2.32299,0 0.27376,0.33672 -0.27377,1.09185 0,1.42857 0.27376,0.33672 0.88772,-0.33672 1.16149,0 0.54753,0.67344 -0.54754,2.18371 0,2.85714 3.0973,0 -0.38716,-0.47619 1.16149,1.42857 0.1708,0.21009 3.48447,-0.16806 3.48447,0 0,0.47619 -1.54866,0 -1.16149,0 6.58178,0 0.38716,-0.95238 2.32299,1.42858 0.24831,0.30542 4.00559,-0.26254 4.64595,0 0.8213,0.33671 1.50169,1.09185 2.32298,1.42857 0.81672,0.33484 5.48909,-0.39159 5.80746,0 0.27377,0.33671 -0.27377,1.09185 0,1.42857 0.27377,0.33672 0.77432,0 1.16149,0 0.38716,0 0.77432,0 1.16149,0 0.42654,0 4.59922,-0.0575 4.64596,0 0.27377,0.33672 -0.27376,1.09185 0,1.42857 0.27377,0.33672 0.77433,0 1.16149,0 0.54764,0 5.75481,-0.0648 5.80746,0 0.27377,0.33672 -0.27377,1.09185 0,1.42857 0.58074,0.71429 2.90373,-0.71428 3.48447,0 0.27377,0.33672 -0.27376,1.09186 0,1.42857 0.54753,0.67344 1.77545,-0.67343 2.32298,0 0.27376,0.33672 -0.27376,1.09186 0,1.42857 0.54753,0.67344 1.77545,-0.67343 2.32298,0 0.27377,0.33672 -0.27376,1.09186 0,1.42858 0.58074,0.71428 2.90373,-0.71429 3.48447,0 0.27377,0.33671 -0.27376,1.09185 0,1.42857 0.27377,0.33671 0.88773,-0.33672 1.16149,0 0.27377,0.33671 -0.27376,1.09185 0,1.42857 0.27377,0.33672 0.7942,-0.15059 1.1615,0 0.82129,0.33672 1.50168,1.09185 2.32298,1.42857 0.73459,0.30117 1.77545,-0.67343 2.32298,0 0.27377,0.33672 -0.27377,1.09185 0,1.42857 0.58075,0.71429 2.90373,-0.71428 3.48447,0 0.27376,0.33672 -0.27376,1.09186 0,1.42857 0.27376,0.33672 0.8152,-0.21296 1.16149,0 0.48973,0.30117 0.67176,1.12741 1.16149,1.42857 0.34629,0.21296 1.16149,-0.47619 1.16149,0 0,0.42688 -3.85218,-0.94041 0,1.42858 0.34629,0.21295 0.88772,-0.33672 1.16149,0 0.27377,0.33671 -0.27377,1.09185 0,1.42857 0.27377,0.33671 0.88773,-0.33672 1.16149,0 0.27377,0.33671 -0.32213,1.16443 0,1.42857 0.82224,4.3558 3.21817,0.55052 4.64597,1.42857 0.48973,0.30117 0.67176,1.1274 1.16149,1.42857 0.69258,0.42592 1.6304,-0.42592 2.32298,0 0.97945,0.60234 1.34353,2.25481 2.32298,2.85714 0.69258,0.42592 1.6304,-0.42591 2.32298,0 0.48973,0.30117 0.67176,1.12741 1.16149,1.42858 0.46053,0.2832 3.24702,-0.29206 3.48447,0 0.27377,0.33671 -0.27376,1.09185 0,1.42857 0.27377,0.33671 0.81521,-0.21296 1.1615,0 0.48972,0.30117 0.67176,1.1274 1.16149,1.42857 0.63009,0.38749 4.32815,-0.39089 4.64596,0 0.27376,0.33672 -0.27376,1.09185 0,1.42857 0.31781,0.39089 4.01587,-0.38749 4.64596,0 0.48973,0.30117 0.67176,1.1274 1.16149,1.42857 0.69258,0.42592 1.77545,-0.67343 2.32298,0 0.27377,0.33672 -0.27376,1.09186 0,1.42857 0.27377,0.33672 0.81521,-0.21296 1.16149,0 0.48973,0.30117 0.67177,1.12741 1.1615,1.42857 0.69257,0.42592 1.77544,-0.67343 2.32298,0 0.27376,0.33672 -0.27377,1.09186 0,1.42858 0.58074,0.71428 2.90372,-0.71429 3.48447,0 0.27376,0.33671 -0.34629,1.21561 0,1.42857 0.69258,0.42592 1.6304,-0.42592 2.32298,0 0.34629,0.21296 -0.27377,1.09185 0,1.42857 0.23745,0.29205 3.02395,-0.28321 3.48447,0 0.48973,0.30117 0.64205,1.21561 1.16149,1.42857 0.79017,0.32395 5.19158,-0.37874 5.80746,0 0.48973,0.30117 0.67176,1.1274 1.16149,1.42857 0.35347,0.21738 2.96138,0 3.48446,0 2.71015,0 5.4203,0 8.13044,0 1.06857,0 2.43913,-0.25714 3.48448,0 1.56531,0.38505 3.08064,1.04352 4.64595,1.42857 1.24186,0.30549 4.37564,0 5.80746,0 3.87164,0 7.74327,0 11.61491,0 2.71014,0 5.42029,0 8.13044,0 0.38716,0 0.77432,0 1.16149,0 0.38716,0 1.16149,-0.47619 1.16149,0 0,0.47619 -1.54866,0 -1.16149,0 0.77432,0 1.63039,0.42592 2.32297,0 0.3463,-0.21296 -0.27376,-1.09185 0,-1.42857 0.58075,-0.71428 2.90373,0.71429 3.48448,0 0.27376,-0.33672 -0.27377,-1.09185 0,-1.42857 0.27376,-0.33672 0.77433,0 1.16149,0 0.38716,0 0.77433,0 1.16149,0 0.77433,0 1.54865,0 2.32298,0 0.38716,0 1.16149,-0.47619 1.16149,0 0,0.47619 -1.54865,0 -1.16149,0 0.77433,0 1.54865,0 2.32298,0"
         style="fill:none;fill-rule:evenodd;stroke:#000000;stroke-width:0.90168923px;stroke-linecap:butt;stroke-linejoin:miter;stroke-opacity:1" />
      <path
         inkscape:connector-curvature="0"
         id="path4996"
         d="m -448.57142,514.93363 c 1.14527,6.02127 4.97109,0.34269 7.14285,1.42857 0.60234,0.30117 0.82624,1.12741 1.42857,1.42857 0.42592,0.21296 1.00266,-0.21295 1.42858,0 0.60233,0.30117 0.82623,1.12741 1.42857,1.42858 0.42591,0.21295 0.95238,0 1.42857,0 0.47619,0 0.95238,0 1.42857,0 2.85714,0 5.71429,0 8.57143,0 9.52381,0 19.04762,0 28.57143,0 3.80952,0 7.61904,0 11.42857,0 0.47619,0 1.09185,0.33671 1.42857,0 0.33672,-0.33672 -0.33672,-1.09186 0,-1.42858 0.67343,-0.67343 2.18371,0.67344 2.85714,0 0.67344,-0.67343 -0.67343,-2.1837 0,-2.85714 3.80953,0 -0.47619,0.47619 1.42857,-1.42857 0.33672,-0.33672 1.09186,0.33672 1.42858,0 0.33671,-0.33672 -0.33672,-1.09185 0,-1.42857 0.33671,-0.33672 1.09185,0.33672 1.42857,0 0.33671,-0.33672 -0.33672,-1.09186 0,-1.42857 0.34376,-0.34376 5.37052,0.34376 5.71428,0 0.33672,-0.33672 -0.33671,-1.09186 0,-1.42857 0.33672,-0.33672 1.09186,0.33671 1.42857,0 0.29206,-0.29206 -0.2832,-3.7193 0,-4.28572 0.30117,-0.60234 1.12741,-0.82623 1.42858,-1.42857 0.42591,-0.85184 -0.67344,-2.18371 0,-2.85714 0.33671,-0.33672 1.09185,0.33671 1.42857,0 0.71428,-0.71429 -0.71429,-3.57143 0,-4.28572 0.33671,-0.33671 1.09185,0.33672 1.42857,0 0.34376,-0.34376 -0.34376,-5.37052 0,-5.71428 0.33672,-0.33672 1.09185,0.33671 1.42857,0 0.29205,-0.29205 -0.28321,-3.7193 0,-4.28572 0.30117,-0.60234 1.1274,-0.82623 1.42857,-1.42857 0.18468,-0.36936 0,-7.55885 0,-8.57143 0,-0.47619 -0.33672,-1.09185 0,-1.42857 0.33672,-0.33672 1.09186,0.33672 1.42857,0 0.34376,-0.34376 -0.34376,-5.37053 0,-5.71428 0.046,-0.046 3.93925,0 4.28572,0 1.42857,0 2.85714,0 4.28571,0 0.47619,0 1.42857,-0.47619 1.42857,0 0,0.47619 -1.90476,0 -1.42857,0 0.95238,0 2.00531,-0.42592 2.85714,0 0.42592,0.21295 -0.33671,1.09185 0,1.42857 0.67344,0.67343 2.18371,-0.67344 2.85715,0 0.33671,0.33671 -0.21296,1.00265 0,1.42857 0.30117,0.60234 1.1274,0.82623 1.42857,1.42857 0.21296,0.42592 -0.33672,1.09185 0,1.42857 0.67343,0.67344 2.18371,-0.67343 2.85714,0 0.67344,0.67344 -0.67343,2.18371 0,2.85714 0.67344,0.67344 2.18371,-0.67343 2.85714,0 0.33672,0.33672 -0.33671,1.09186 0,1.42858 0.67344,0.67343 2.18371,-0.67344 2.85715,0 0.33671,0.33671 -0.33672,1.09185 0,1.42857 0.67343,0.67343 2.1837,-0.67344 2.85714,0 0.33672,0.33671 -0.33672,1.09185 0,1.42857 0.33672,0.33672 0.95238,0 1.42857,0 0.67357,0 7.07811,-0.0648 7.14286,0 0.33672,0.33672 -0.33672,1.09185 0,1.42857 0.71428,0.71429 3.57143,-0.71429 4.28571,0 0.33672,0.33672 -0.39621,1.16443 0,1.42857 1.25294,0.83529 2.82483,1.06335 4.28572,1.42857 0.46197,0.1155 1.09185,-0.33671 1.42857,0 0.33672,0.33672 -0.33672,1.09186 0,1.42857 0.71428,0.71429 3.57143,-0.71428 4.28571,0 0.33672,0.33672 -0.33671,1.09186 0,1.42858 0.33672,0.33671 1.00266,-0.21296 1.42857,0 0.60234,0.30117 0.82624,1.1274 1.42858,1.42857 0.42591,0.21296 1.09185,-0.33672 1.42857,0 0.33671,0.33671 -0.33672,1.09185 0,1.42857 0.33671,0.33672 1.09185,-0.33672 1.42857,0 0.33672,0.33672 -0.33672,1.09185 0,1.42857 0.71428,0.71429 3.57143,-0.71429 4.28571,0 0.33672,0.33672 -0.33671,1.09185 0,1.42857 0.67344,0.67344 2.00531,-0.42592 2.85715,0 1.20467,0.60234 1.65246,2.25481 2.85714,2.85714 0.42592,0.21296 1.09185,-0.33671 1.42857,0 0.33672,0.33672 -0.33672,1.09186 0,1.42858 0.0648,0.0647 6.46929,0 7.14286,0 0.98646,0 5.27995,-0.21717 5.71428,0 0.60234,0.30117 0.82624,1.1274 1.42857,1.42857 1.14286,0.57143 3.14286,-0.57143 4.28572,0 0.60234,0.30117 0.82623,1.1274 1.42857,1.42857 0.42592,0.21296 1.09185,-0.33672 1.42857,0 0.33672,0.33672 -0.33672,1.09185 0,1.42857 0.34376,0.34376 5.37053,-0.34376 5.71429,0 0.33671,0.33672 -0.33672,1.09185 0,1.42857 0.33671,0.33672 0.95238,0 1.42857,0 1.42857,0 2.93045,-0.45175 4.28571,0 0.45176,0.15059 -0.33671,1.09186 0,1.42857 0.67344,0.67344 2.18371,-0.67343 2.85715,0 0.33671,0.33672 -0.33672,1.09186 0,1.42857 0.33671,0.33672 0.95238,0 1.42857,0 0.47619,0 0.95238,0 1.42857,0 1.01257,0 8.20207,-0.18467 8.57143,0 0.60234,0.30117 0.82623,1.12741 1.42857,1.42858 0.37563,0.18781 4.96725,0 5.71428,0 4.28572,0 8.57143,0 12.85715,0 3.33333,0 6.66666,0 10,0 1.42857,0 2.93045,-0.45176 4.28571,0 0.63888,0.21295 0.82623,1.1274 1.42857,1.42857 0.43477,0.21738 3.64235,0 4.28572,0 3.33333,0 6.66666,0 10,0 0.47619,0 0.95238,0 1.42857,0 0.47619,0 1.42857,-0.47619 1.42857,0 0,0.47619 -0.95238,0 -1.42857,0"
         style="fill:none;fill-rule:evenodd;stroke:#000000;stroke-width:1px;stroke-linecap:butt;stroke-linejoin:miter;stroke-opacity:1" />
    </g>
    <g
       id="g5092"
       transform="translate(56.791898,-12.284271)">
      <path
         inkscape:connector-curvature="0"
         id="path4984-1"
         d="m 452.08221,435.25331 c -1.71561,-1.52358 -8.18489,7.66387 -10,8.57143 -0.85183,0.42591 -2.1837,-0.67344 -2.85714,0 -0.33672,0.33671 0.33672,1.09185 0,1.42857 -0.33672,0.33671 -0.95238,0 -1.42857,0 -0.47619,0 -0.95238,0 -1.42857,0 -0.47619,0 -1.09185,0.33671 -1.42857,0 -0.33672,-0.33672 0.21296,-1.00266 0,-1.42857 -0.60234,-1.20468 -2.11004,-1.73648 -2.85715,-2.85715 -0.59064,-0.88596 -0.67564,-2.10422 -1.42857,-2.85714 -0.0647,-0.0648 -6.46929,0 -7.14285,0 -2.38096,0 -4.76191,0 -7.14286,0 -0.47619,0 -1.09185,-0.33672 -1.42857,0 -0.33672,0.33672 0.33672,1.09185 0,1.42857 -0.33672,0.33672 -0.95238,0 -1.42857,0 -0.74703,0 -5.33866,0.18782 -5.71429,0 -0.60234,-0.30117 -0.82623,-1.1274 -1.42857,-1.42857 -0.36936,-0.18468 -7.55886,0 -8.57143,0 -1.01257,0 -8.20207,-0.18468 -8.57143,0 -0.60234,0.30117 -0.82623,1.1274 -1.42857,1.42857 -0.42592,0.21296 -1.09185,-0.33672 -1.42857,0 -2.95577,2.95577 4.5168,-0.11554 -1.42857,2.85714 -0.42592,0.21296 -1.09186,-0.33671 -1.42857,0 -1.90477,1.90477 2.38095,1.42858 -1.42858,1.42858 -3.35025,0 0.67344,-0.33672 -2.85714,1.42857 -0.43476,0.21738 -3.64234,0 -4.28571,0 -0.47619,0 -1.09186,0.33671 -1.42857,0 -0.33672,-0.33672 0.42591,-1.21562 0,-1.42857 -1.27776,-0.63888 -2.85715,0 -4.28572,0 -0.95238,0 -1.90476,0 -2.85714,0 -0.47619,0 -1.42857,-0.47619 -1.42857,0 0,0.47619 1.90476,0 1.42857,0 -2.85714,0 -5.71429,0 -8.57143,0 -0.47619,0 -0.95238,0 -1.42857,0 -0.47619,0 -1.00265,0.21295 -1.42857,0 -0.60234,-0.30117 -0.82624,-1.12741 -1.42857,-1.42858 -0.77499,-0.38749 -5.3234,0.39089 -5.71429,0 -0.33672,-0.33671 0.33672,-1.09185 0,-1.42857 -0.33672,-0.33671 -0.95238,0 -1.42857,0 -0.47619,0 -0.95238,0 -1.42857,0 -2.38095,0 -4.76191,0 -7.14286,0 -0.95238,0 -1.90476,0 -2.85714,0 -0.47619,0 -1.42857,-0.47619 -1.42857,0 0,0.47619 0.95238,0 1.42857,0"
         style="fill:none;fill-rule:evenodd;stroke:#000000;stroke-width:1px;stroke-linecap:butt;stroke-linejoin:miter;stroke-opacity:1" />
      <path
         inkscape:connector-curvature="0"
         id="path4986-8"
         d="m 447.7965,472.68188 c -4.28571,0 -8.57143,0 -12.85714,0 -0.47619,0 -1.09186,-0.33672 -1.42857,0 -0.95238,1.42857 -1.90477,2.85714 -2.85715,4.28571 0,0.47619 0.21296,1.00266 0,1.42857 -0.60234,1.20468 -2.2548,1.65247 -2.85714,2.85715 -0.21296,0.42592 0.33672,1.09185 0,1.42857 -0.33672,0.33672 -1.09185,0.33672 -1.42857,0 -0.33672,-0.33672 0.21296,-1.00265 0,-1.42857 -0.30117,-0.60234 -1.1274,-0.82624 -1.42857,-1.42857 -0.21296,-0.42592 0.33672,-1.09186 0,-1.42858 -0.33672,-0.33671 -0.95238,0 -1.42857,0 -0.47619,0 -0.95238,0 -1.42858,0 -5.71428,0 -11.42857,0 -17.14285,0 -0.47619,0 -0.95238,0 -1.42857,0 -0.47619,0 -1.09186,0.33672 -1.42858,0 -0.33671,-0.33671 0.33672,-1.09185 0,-1.42857 -0.71428,-0.71428 -3.57142,0.71429 -4.28571,0 -2.95576,-2.95576 4.5168,0.11555 -1.42857,-2.85714 -0.42592,-0.21296 -0.95238,0 -1.42857,0 -0.47619,0 -0.95238,0 -1.42857,0 -2.85715,0 -5.71429,0 -8.57143,0 -9.52381,0 -19.04762,0 -28.57143,0 -2.85714,0 -5.71429,0 -8.57143,0 -0.47619,0 -1.09185,0.33672 -1.42857,0 -0.33672,-0.33672 0.33672,-1.09185 0,-1.42857 -0.71429,-0.71429 -3.57143,0.71428 -4.28572,0 0,-3.80953 0.4762,0.47619 -1.42857,-1.42857 -0.33671,-0.33672 0.33672,-1.09186 0,-1.42857 -0.33671,-0.33672 -0.95238,0 -1.42857,0 -0.47619,0 -0.95238,0 -1.42857,0 -0.47619,0 -1.90476,0 -1.42857,0 0.95238,0 3.80952,0 2.85714,0 -1.42857,0 -2.89979,0.34648 -4.28571,0 -0.65333,-0.16334 -0.82624,-1.12741 -1.42857,-1.42858 -0.42592,-0.21295 -1.09186,0.33672 -1.42858,0 -0.33671,-0.33671 0.33672,-1.09185 0,-1.42857 -0.0459,-0.0459 -3.93924,0 -4.28571,0"
         style="fill:none;fill-rule:evenodd;stroke:#000000;stroke-width:1px;stroke-linecap:butt;stroke-linejoin:miter;stroke-opacity:1" />
      <path
         inkscape:connector-curvature="0"
         id="path4988-5"
         d="m 460.65364,499.53902 c -1.90476,-0.47619 -3.78903,-1.04352 -5.71429,-1.42857 -1.58826,-0.31766 -4.04471,0 -5.71428,0 -3.80952,0 -7.61905,0 -11.42857,0 -2.85715,0 -5.71429,0 -8.57143,0 -0.47619,0 -1.09185,-0.33672 -1.42857,0 -0.33672,0.33671 0.33672,1.09185 0,1.42857 -0.42269,0.42269 -4.82941,-0.44244 -5.71429,0 -0.60234,0.30117 -0.82623,1.1274 -1.42857,1.42857 -0.37563,0.18781 -4.96726,0 -5.71429,0 -3.80952,0 -7.61904,0 -11.42857,0 -1.90476,0 -3.80952,0 -5.71428,0 -0.95238,0 -3.80953,0 -2.85715,0 0.95239,0 3.80953,0 2.85715,0 -1.42857,0 -2.85715,0 -4.28572,0 -0.47619,0 -1.00265,0.21296 -1.42857,0 -0.60234,-0.30117 -0.78969,-1.21561 -1.42857,-1.42857 -0.81266,-0.27089 -5.79737,0 -7.14286,0 -0.47619,0 -1.09185,0.33671 -1.42857,0 -0.33672,-0.33672 0.33672,-1.09186 0,-1.42857 -0.33672,-0.33672 -1.09185,0.33671 -1.42857,0 -0.33672,-0.33672 0.33672,-1.09186 0,-1.42858 -0.71429,-0.71428 -3.57143,0.71429 -4.28571,0 -0.33672,-0.33671 0.33671,-1.09185 0,-1.42857 -0.046,-0.0459 -3.93925,0 -4.28572,0 -1.90476,0 -3.80952,0 -5.71428,0 -0.47619,0 -1.90477,0 -1.42858,0 0.95239,0 3.80953,0 2.85715,0 -0.0494,0 -4.42879,0 -5.71429,0 -0.95238,0 -3.80952,0 -2.85714,0 0.95238,0 2.85714,-0.95238 2.85714,0 0,1.0648 -2.10422,0.67565 -2.85714,1.42857 -0.33672,0.33672 0.33672,1.09186 0,1.42858 -0.71429,0.71428 -3.57143,-0.71429 -4.28572,0 -1.90476,1.90476 2.38096,1.42857 -1.42857,1.42857 -1.42857,0 -2.85714,0 -4.28571,0 -0.47619,0 -1.42857,-0.47619 -1.42857,0 0,0.47619 1.90476,0 1.42857,0 -1.42857,0 -2.85714,0 -4.28572,0 -0.47619,0 -1.90476,0 -1.42857,0 0.95238,0 3.80953,0 2.85715,0 -1.42858,0 -2.85715,0 -4.28572,0 -3.33333,0 -6.66666,0 -10,0 -0.47619,0 -1.09185,0.33671 -1.42857,0 -0.33672,-0.33672 0.33672,-1.09186 0,-1.42857 -0.33672,-0.33672 -1.42857,-0.47619 -1.42857,0 0,0.47619 0.95238,0 1.42857,0"
         style="fill:none;fill-rule:evenodd;stroke:#000000;stroke-width:1px;stroke-linecap:butt;stroke-linejoin:miter;stroke-opacity:1" />
    </g>
    <flowRoot
       xml:space="preserve"
       id="flowRoot5046"
       style="font-style:normal;font-weight:normal;font-size:40px;line-height:125%;font-family:sans-serif;letter-spacing:0px;word-spacing:0px;fill:#000000;fill-opacity:1;stroke:none;stroke-width:1px;stroke-linecap:butt;stroke-linejoin:miter;stroke-opacity:1"
       transform="translate(58.588848,20.203051)"><flowRegion
         id="flowRegion5048"><rect
           id="rect5050"
           width="241.42857"
           height="122.85714"
           x="-765.71429"
           y="558.07648" /></flowRegion><flowPara
         id="flowPara5054">DAQ </flowPara><flowPara
         id="flowPara5058">watches</flowPara></flowRoot>    <flowRoot
       xml:space="preserve"
       id="flowRoot5060"
       style="font-style:normal;font-weight:normal;font-size:40px;line-height:125%;font-family:sans-serif;letter-spacing:0px;word-spacing:0px;fill:#000000;fill-opacity:1;stroke:none;stroke-width:1px;stroke-linecap:butt;stroke-linejoin:miter;stroke-opacity:1"
       transform="translate(0,25.917895)"><flowRegion
         id="flowRegion5062"><rect
           id="rect5064"
           width="364.28571"
           height="147.14285"
           x="-447.14285"
           y="552.36218" /></flowRegion><flowPara
         id="flowPara5066">DAQ </flowPara><flowPara
         id="flowPara5068">wants to record!</flowPara></flowRoot>    <flowRoot
       xml:space="preserve"
       id="flowRoot5070"
       style="font-style:normal;font-weight:normal;font-size:40px;line-height:125%;font-family:sans-serif;letter-spacing:0px;word-spacing:0px;fill:#000000;fill-opacity:1;stroke:none;stroke-width:1px;stroke-linecap:butt;stroke-linejoin:miter;stroke-opacity:1"
       transform="translate(0,31.630785)"><flowRegion
         id="flowRegion5072"><rect
           id="rect5074"
           width="364.28571"
           height="182.85715"
           x="-22.857143"
           y="546.64795" /></flowRegion><flowPara
         id="flowPara5076">DAQ </flowPara><flowPara
         id="flowPara5078">records</flowPara></flowRoot>    <flowRoot
       xml:space="preserve"
       id="flowRoot5080"
       style="font-style:normal;font-weight:normal;font-size:40px;line-height:125%;font-family:sans-serif;letter-spacing:0px;word-spacing:0px;fill:#000000;fill-opacity:1;stroke:none;stroke-width:1px;stroke-linecap:butt;stroke-linejoin:miter;stroke-opacity:1"
       transform="translate(0,34.488207)"><flowRegion
         id="flowRegion5082"><rect
           id="rect5084"
           width="212.85715"
           height="190"
           x="405.71429"
           y="543.79077" /></flowRegion><flowPara
         id="flowPara5086">DAQ</flowPara><flowPara
         id="flowPara5088">watches</flowPara></flowRoot>    <g
       id="g5097"
       transform="translate(50,-20)">
      <path
         inkscape:connector-curvature="0"
         id="path4990-7"
         d="m -59.754418,482.64726 c 15.71429,0 31.42857,0 47.14286,0 3.3333295,0 6.6666695,0 9.9999995,0 0.47619,0 1.09185,-0.33672 1.42857,0 0.33672001,0.33671 -0.33672,1.09185 0,1.42857 0.71429001,0.71428 3.57143,-0.71429 4.28572,0 0.33671,0.33671 -0.33672,1.09185 0,1.42857 0.71428,0.71428 3.57142,-0.71429 4.28571,0 0.33672,0.33672 -0.33672,1.09185 0,1.42857 0.0459,0.0459 3.9392505,0 4.2857105,0 1.90477,0 3.80953,0 5.71429,0 0.47619,0 0.95238,0 1.42857,0 0.47619,0 1.42857,-0.47619 1.42857,0 0,0.47619 -1.90476,0 -1.42857,0 0.95238,0 1.90476,0 2.85714,0 1.90477,0 3.80953,0 5.71429,0 0.47619,0 0.95238,0 1.42857,0 0.47619,0 1.42857,-0.47619 1.42857,0 0,0.47619 -1.42857,0.47619 -1.42857,0 0,-0.67343 0.82623,-1.1274 1.42857,-1.42857 3.80953,0 -0.47619,0.47619 1.42857,-1.42857 0.33672,-0.33672 1.09186,0.33671 1.42858,0 0.67343,-0.67344 -0.67344,-2.18371 0,-2.85715 0.33671,-0.33671 1.09185,0.33672 1.42857,0 0.29205,-0.29205 -0.28321,-3.71929 0,-4.28571 0.30117,-0.60234 1.1274,-0.82623 1.42857,-1.42857 0.28321,-0.56642 -0.29205,-3.99366 0,-4.28572 0.33672,-0.33671 1.09185,0.33672 1.42857,0 0.67343,-0.67343 -0.30117,-1.95363 0,-2.85714 0.33672,-1.01015 1.09185,-1.84699 1.42857,-2.85714 0.15059,-0.45176 -0.33672,-1.09186 0,-1.42857 0.33672,-0.33672 1.09186,0.33671 1.42857,0 0.71429,-0.71429 -0.71428,-3.57143 0,-4.28572 0.33672,-0.33671 1.09186,0.33672 1.42857,0 0.71429,-0.71428 -0.71428,-3.57143 0,-4.28571 0.33672,-0.33672 1.00266,0.21296 1.42858,0 5.94537,-2.97269 -1.5272,0.0986 1.42857,-2.85714 0.0647,-0.0648 6.46929,0 7.142851,0 1.40817,0 4.26531,0 2.85715,0 -8.158861,0 2.66347,-0.19367 2.85714,0 0.33672,0.33671 -0.33672,1.09185 0,1.42857 0.67343,0.67343 2.18371,-0.67344 2.85714,0 0.33672,0.33671 -0.33671,1.09185 0,1.42857 0.33672,0.33672 1.00266,-0.21296 1.42857,0 0.60234,0.30117 0.82624,1.1274 1.42858,1.42857 0.42591,0.21296 1.09185,-0.33672 1.42857,0 0.33671,0.33672 -0.33672,1.09185 0,1.42857 0.33671,0.33672 1.09185,-0.33672 1.42857,0 0.33672,0.33672 -0.33672,1.09186 0,1.42857 0.33672,0.33672 1.09185,-0.33671 1.42857,0 0.33672,0.33672 -0.33672,1.09186 0,1.42857 0.33672,0.33672 1.09185,-0.33671 1.42857,0 0.33672,0.33672 -0.33672,1.09186 0,1.42858 0.33672,0.33671 1.09186,-0.33672 1.42857,0 0.33672,0.33671 -0.33671,1.09185 0,1.42857 0.44236,0.44235 6.70051,-0.44236 7.14286,0 0.33672,0.33671 -0.33672,1.09185 0,1.42857 0.67343,0.67343 2.18371,-0.67344 2.85714,0 0.33672,0.33672 -0.33671,1.09185 0,1.42857 0.33672,0.33672 1.42857,-0.47619 1.42857,0 0,2.02381 -6.66666,-4.04762 1.42858,0 0.42591,0.21296 -0.33672,1.09185 0,1.42857 0.33671,0.33672 1.00265,-0.21296 1.42857,0 0.60234,0.30117 0.82623,1.1274 1.42857,1.42857 0.56642,0.28321 3.99366,-0.29205 4.28571,0 0.33672,0.33672 -0.33671,1.09186 0,1.42857 0.29205,0.29206 3.7193,-0.2832 4.28572,0 1.20467,0.60234 1.65246,2.25481 2.85714,2.85715 0.85184,0.42591 2.18371,-0.67344 2.857137,0 0.33672,0.33671 -0.336707,1.09185 0,1.42857 0.33672,0.33672 1.09186,-0.33672 1.42857,0 0.33672,0.33672 -0.33671,1.09185 0,1.42857 0.71429,0.71429 3.57143,-0.71429 4.28572,0 0.33672,0.33672 -0.33672,1.09185 0,1.42857 0.33672,0.33672 0.95238,0 1.42857,0 0.47619,0 0.95238,0 1.42857,0 1.01258,0 8.20207,-0.18468 8.57143,0 0.60234,0.30117 0.82623,1.1274 1.42857,1.42857 0.36936,0.18468 7.55886,0 8.57143,0 6.19048,0 12.38095,0 18.57143,0 0.47619,0 0.95238,0 1.42857,0 0.47619,0 1.09185,-0.33671 1.42857,0 0.33672,0.33672 -0.33672,1.09186 0,1.42857 0.0459,0.046 3.93925,0 4.28572,0 5.23809,0 10.47619,0 15.71428,0 1.90476,0 3.80953,0 5.71429,0 0.47619,0 0.95238,0 1.42857,0 0.47619,0 1.42857,-0.47619 1.42857,0 0,0.47619 -1.90476,0 -1.42857,0 0.95238,0 1.90476,0 2.85714,0"
         style="fill:none;fill-rule:evenodd;stroke:#000000;stroke-width:1px;stroke-linecap:butt;stroke-linejoin:miter;stroke-opacity:1" />
      <path
         inkscape:connector-curvature="0"
         id="path4994-5"
         d="m -62.611558,474.07582 c 8.13043,0 16.26087,0 24.3913,0 0.54765,0 5.75482,0.0648 5.80746,0 0.27377,-0.33671 -0.27377,-1.09185 0,-1.42857 0.27377,-0.33671 0.77433,0 1.16149,0 0.38716,0 0.77433,0 1.16149,0 3.09731,0 6.19462,0 9.29193,0 0.38716,0 0.88772,0.33672 1.16149,0 0.27376,-0.33671 -0.27377,-1.09185 0,-1.42857 0.54753,-0.67343 1.77544,0.67344 2.32298,0 0.27377,-0.33672 -0.27377,-1.09185 0,-1.42857 0.27377,-0.33672 0.8152,0.21296 1.16149,0 0.48973,-0.30117 0.67176,-1.1274 1.16149,-1.42857 0.69258,-0.42592 1.77545,0.67343 2.32299,0 0.27376,-0.33672 -0.27377,-1.09186 0,-1.42857 0.27376,-0.33672 0.77432,0 1.16149,0 0.77432,0 1.5486495,0 2.3229695,0 0.38717,0 1.16149,-0.47619 1.16149,0 0,0.47619 -1.54865,0 -1.16149,0 0.77433,0 1.54866,0 2.32298,0 0.38717,0 0.88773,0.33671 1.16149,0 0.27377,-0.33672 -0.27376,-1.09186 0,-1.42857 0.27377,-0.33672 0.88773,0.33671 1.1615,0 0.27376,-0.33672 -0.27377,-1.09186 0,-1.42858 0.27376,-0.33671 0.88772,0.33672 1.16149,0 0.54753,-0.67343 -0.34629,-2.0053 0,-2.85714 0.48973,-1.20468 1.83325,-1.65246 2.32298,-2.85714 0.34629001,-0.85184 -0.54754,-2.18371 0,-2.85714 0.27377001,-0.33672 0.88772001,0.33671 1.16149001,0 0.23745,-0.29206 -0.23026,-3.7193 0,-4.28572 0.24486,-0.60234 0.91661999,-0.82623 1.16148999,-1.42857 0.36501,-0.89789 -0.36500999,-4.8164 0,-5.71429 0.24486,-0.60233 0.91662,-0.82623 1.16149,-1.42857 0.17314,-0.42591 0,-0.95238 0,-1.42857 0,-0.47619 0,-0.95238 0,-1.42857 0,-2.38095 0,-4.7619 0,-7.14286 0,-0.47619 0,-0.95238 0,-1.42857 0,-0.47619 -0.17314,-1.00265 0,-1.42857 0.24486,-0.60234 0.91663,-0.82623 1.1615,-1.42857 0.15014,-0.36936 0,-7.55886 0,-8.57143 0,-0.47619 0,-0.95238 0,-1.42857 0,-0.47619 -0.27377,-1.09186 0,-1.42857 0.27376,-0.33672 0.88772,0.33671 1.16149,0 0.54752,-0.67344 -0.54754,-2.18371 0,-2.85715 0.27376,-0.33671 0.88772,0.33672 1.16149,0 0.27376,-0.33671 0,-0.95238 0,-1.42857 0,-0.47619 0,-0.95238 0,-1.42857 0,-1.01257 -0.15016,-8.20207 0,-8.57143 0.24486,-0.60234 0.91662,-0.82623 1.16148,-1.42857 0.15016,-0.36936 0,-7.55885 0,-8.57143 0,-0.47619 -0.27376,-1.09185 0,-1.42857 0.27377,-0.33672 0.88773,0.33672 1.16149,0 0.27377,-0.33672 0,-0.95238 0,-1.42857 0,-0.95238 -0.34629,-2.00531 0,-2.85714 0.17315,-0.42592 0.98835,0.42592 1.16149,0 0.36502,-0.89789 -0.365,-4.8164 0,-5.71429 0.24487,-0.60234 0.9883605,-0.78969 1.1614905,-1.42857 0.17709,-0.65341 -0.25841,-5.0786 0,-5.71429 0.24487,-0.60233 0.91664,-0.82623 1.1615,-1.42857 0.17314,-0.42591 -0.27377,-1.09185 0,-1.42857 0.27376,-0.33672 0.88772,0.33672 1.16149,0 0.54753,-0.67343 -0.34629,-2.00531 0,-2.85714 0.24486,-0.60234 0.91663,-0.82623 1.16149,-1.42857 0.17315,-0.42592 -0.27377,-1.09186 0,-1.42857 1.5942,-1.96079 1.16149,2.521 1.16149,2.85714 0,0.47619 0.38716,1.42857 0,1.42857 -0.38716,0 0,-1.90476 0,-1.42857 0,0.33947 -0.13016,5.3941 0,5.71428 0.24486,0.60234 0.91662,0.82624 1.16149,1.42858 0.17314,0.42591 -0.17315,1.00265 0,1.42857 0.24486,0.60234 0.91662,0.82623 1.16149,1.42857 0.17314,0.42592 0.38716,1.42857 0,1.42857 -0.38716,0 0,-1.90476 0,-1.42857 0,0.95238 -0.34629,2.00531 0,2.85714 0.17314,0.42592 0.88773,-0.33672 1.16149,0 0.54753,0.67344 -0.34629,2.00531 0,2.85714 0.24486,0.60234 0.91663,0.82624 1.1615,1.42858 0.17313,0.42591 -0.27377,1.09185 0,1.42857 0.27376,0.33671 0.88772,-0.33672 1.16149,0 0.27375,0.33671 0,0.95238 0,1.42857 0,0.47619 0.38716,1.42857 0,1.42857 -0.38717,0 -0.38717,-1.42857 0,-1.42857 0.54752,0 0.91662,0.82623 1.16148,1.42857 0.17315,0.42592 -0.17314,1.00265 0,1.42857 0.24487,0.60234 0.91663,0.82623 1.16149,1.42857 0.17315,0.42592 -0.27376,1.09186 0,1.42857 0.27377,0.33672 0.8152,-0.21295 1.16149,0 0.48973,0.30117 0.77433,0.95239 1.16149,1.42858 0.38717,0.47619 0.91663,0.82623 1.16149,1.42857 0.17315,0.42592 -0.27376,1.09185 0,1.42857 0.54754,0.67343 1.77545,-0.67344 2.32299,0 0.27376,0.33672 -0.27377,1.09185 0,1.42857 0.27376,0.33672 0.88772,-0.33672 1.16149,0 0.54753,0.67344 -0.54754,2.18371 0,2.85714 3.0973,0 -0.38716,-0.47619 1.16149,1.42857 0.1708,0.21009 3.48447,-0.16806 3.48447,0 0,0.47619 -1.54866,0 -1.16149,0 6.58178,0 0.38716,-0.95238 2.32299,1.42858 0.24831,0.30542 4.00559,-0.26254 4.64595,0 0.8213,0.33671 1.50169,1.09185 2.32298,1.42857 0.81672,0.33484 5.48909,-0.39159 5.80746,0 0.27377,0.33671 -0.27377,1.09185 0,1.42857 0.27377,0.33672 0.77432,0 1.16149,0 0.38716,0 0.77432,0 1.16149,0 0.426541,0 4.599221,-0.0575 4.645961,0 0.27377,0.33672 -0.27376,1.09185 0,1.42857 0.27377,0.33672 0.77433,0 1.16149,0 0.54764,0 5.75481,-0.0648 5.80746,0 0.27377,0.33672 -0.27377,1.09185 0,1.42857 0.58074,0.71429 2.90373,-0.71428 3.48447,0 0.27377,0.33672 -0.27376,1.09186 0,1.42857 0.54753,0.67344 1.77545,-0.67343 2.32298,0 0.27376,0.33672 -0.27376,1.09186 0,1.42857 0.54753,0.67344 1.77545,-0.67343 2.32298,0 0.27377,0.33672 -0.27376,1.09186 0,1.42858 0.58074,0.71428 2.90373,-0.71429 3.48447,0 0.27377,0.33671 -0.27376,1.09185 0,1.42857 0.27377,0.33671 0.88773,-0.33672 1.16149,0 0.27377,0.33671 -0.27376,1.09185 0,1.42857 0.27377,0.33672 0.7942,-0.15059 1.1615,0 0.82129,0.33672 1.50168,1.09185 2.32298,1.42857 0.73459,0.30117 1.77545,-0.67343 2.32298,0 0.27377,0.33672 -0.27377,1.09185 0,1.42857 0.58075,0.71429 2.90373,-0.71428 3.48447,0 0.27376,0.33672 -0.27376,1.09186 0,1.42857 0.27376,0.33672 0.8152,-0.21296 1.16149,0 0.48973,0.30117 0.67176,1.12741 1.16149,1.42857 0.34629,0.21296 1.16149,-0.47619 1.16149,0 0,0.42688 -3.85218,-0.94041 0,1.42858 0.34629,0.21295 0.88772,-0.33672 1.16149,0 0.27377,0.33671 -0.27377,1.09185 0,1.42857 0.27377,0.33671 0.88773,-0.33672 1.16149,0 0.27377,0.33671 -0.32213,1.16443 0,1.42857 0.82224,4.3558 3.21817,0.55052 4.64597,1.42857 0.48973,0.30117 0.67176,1.1274 1.16149,1.42857 0.69258,0.42592 1.6304,-0.42592 2.32298,0 0.97945,0.60234 1.343527,2.25481 2.322977,2.85714 0.69258,0.42592 1.6304,-0.42591 2.32298,0 0.48973,0.30117 0.67176,1.12741 1.16149,1.42858 0.46053,0.2832 3.24702,-0.29206 3.48447,0 0.27377,0.33671 -0.27376,1.09185 0,1.42857 0.27377,0.33671 0.81521,-0.21296 1.1615,0 0.48972,0.30117 0.67176,1.1274 1.16149,1.42857 0.63009,0.38749 4.32815,-0.39089 4.64596,0 0.27376,0.33672 -0.27376,1.09185 0,1.42857 0.31781,0.39089 4.01587,-0.38749 4.64596,0 0.48973,0.30117 0.67176,1.1274 1.16149,1.42857 0.69258,0.42592 1.77545,-0.67343 2.32298,0 0.27377,0.33672 -0.27376,1.09186 0,1.42857 0.27377,0.33672 0.81521,-0.21296 1.16149,0 0.48973,0.30117 0.67177,1.12741 1.1615,1.42857 0.69257,0.42592 1.77544,-0.67343 2.32298,0 0.27376,0.33672 -0.27377,1.09186 0,1.42858 0.58074,0.71428 2.90372,-0.71429 3.48447,0 0.27376,0.33671 -0.34629,1.21561 0,1.42857 0.69258,0.42592 1.6304,-0.42592 2.32298,0 0.34629,0.21296 -0.27377,1.09185 0,1.42857 0.23745,0.29205 3.02395,-0.28321 3.48447,0 0.48973,0.30117 0.64205,1.21561 1.16149,1.42857 0.79017,0.32395 5.19158,-0.37874 5.80746,0 0.48973,0.30117 0.67176,1.1274 1.16149,1.42857 0.35347,0.21738 2.96138,0 3.48446,0 2.71015,0 5.4203,0 8.13044,0 1.06857,0 2.43913,-0.25714 3.48448,0 1.56531,0.38505 3.08064,1.04352 4.64595,1.42857 1.24186,0.30549 4.37564,0 5.80746,0 3.87164,0 7.74327,0 11.61491,0 2.71014,0 5.42029,0 8.13044,0 0.38716,0 0.77432,0 1.16149,0 0.38716,0 1.16149,-0.47619 1.16149,0 0,0.47619 -1.54866,0 -1.16149,0 0.77432,0 1.63039,0.42592 2.32297,0 0.3463,-0.21296 -0.27376,-1.09185 0,-1.42857 0.58075,-0.71428 2.90373,0.71429 3.48448,0 0.27376,-0.33672 -0.27377,-1.09185 0,-1.42857 0.27376,-0.33672 0.77433,0 1.16149,0 0.38716,0 0.77433,0 1.16149,0 0.77433,0 1.54865,0 2.32298,0 0.38716,0 1.16149,-0.47619 1.16149,0 0,0.47619 -1.54865,0 -1.16149,0 0.77433,0 1.54865,0 2.32298,0"
         style="fill:none;fill-rule:evenodd;stroke:#000000;stroke-width:0.90168923px;stroke-linecap:butt;stroke-linejoin:miter;stroke-opacity:1" />
      <path
         inkscape:connector-curvature="0"
         id="path4996-2"
         d="m -69.754398,503.79011 c 1.14527,6.02127 4.97109,0.34269 7.14285,1.42857 0.60234,0.30117 0.82624,1.12741 1.42857,1.42857 0.42592,0.21296 1.00266,-0.21295 1.42858,0 0.60233,0.30117 0.82623,1.12741 1.42857,1.42858 0.42591,0.21295 0.95238,0 1.42857,0 0.47619,0 0.95238,0 1.42857,0 2.85714,0 5.71429,0 8.57143,0 9.52381,0 19.04762,0 28.57143,0 3.80952,0 7.61904,0 11.4285695,0 0.47619,0 1.09185,0.33671 1.42857,0 0.33672,-0.33672 -0.33672,-1.09186 0,-1.42858 0.67343,-0.67343 2.18371,0.67344 2.85714,0 0.67344,-0.67343 -0.67343,-2.1837 0,-2.85714 3.80953,0 -0.47619,0.47619 1.42857,-1.42857 0.33672001,-0.33672 1.09186001,0.33672 1.42858001,0 0.33671,-0.33672 -0.33672,-1.09185 0,-1.42857 0.33671,-0.33672 1.09184999,0.33672 1.42856999,0 0.33671,-0.33672 -0.33672,-1.09186 0,-1.42857 0.34376,-0.34376 5.37052,0.34376 5.71428,0 0.33672,-0.33672 -0.33671,-1.09186 0,-1.42857 0.33672,-0.33672 1.09186,0.33671 1.42857,0 0.29206,-0.29206 -0.2832,-3.7193 0,-4.28572 0.30117,-0.60234 1.12741,-0.82623 1.4285805,-1.42857 0.42591,-0.85184 -0.6734405,-2.18371 0,-2.85714 0.33671,-0.33672 1.09185,0.33671 1.42857,0 0.71428,-0.71429 -0.71429,-3.57143 0,-4.28572 0.33671,-0.33671 1.09185,0.33672 1.42857,0 0.34376,-0.34376 -0.34376,-5.37052 0,-5.71428 0.33672,-0.33672 1.09185,0.33671 1.42857,0 0.29205,-0.29205 -0.28321,-3.7193 0,-4.28572 0.30117,-0.60234 1.1274,-0.82623 1.42857,-1.42857 0.18468,-0.36936 0,-7.55885 0,-8.57143 0,-0.47619 -0.33672,-1.09185 0,-1.42857 0.33672,-0.33672 1.09186,0.33672 1.42857,0 0.34376,-0.34376 -0.34376,-5.37053 0,-5.71428 0.046,-0.046 3.93925,0 4.28572,0 1.42857,0 2.85714,0 4.28571,0 0.47619,0 1.42857,-0.47619 1.42857,0 0,0.47619 -1.90476,0 -1.42857,0 0.95238,0 2.00531,-0.42592 2.85714,0 0.42592,0.21295 -0.33671,1.09185 0,1.42857 0.67344,0.67343 2.18371,-0.67344 2.85715,0 0.33671,0.33671 -0.21296,1.00265 0,1.42857 0.30117,0.60234 1.1274,0.82623 1.42857,1.42857 0.21296,0.42592 -0.33672,1.09185 0,1.42857 0.67343,0.67344 2.18371,-0.67343 2.85714,0 0.67344,0.67344 -0.67343,2.18371 0,2.85714 0.67344,0.67344 2.18371,-0.67343 2.85714,0 0.33672,0.33672 -0.33671,1.09186 0,1.42858 0.67344,0.67343 2.18371,-0.67344 2.85715,0 0.33671,0.33671 -0.33672,1.09185 0,1.42857 0.67343,0.67343 2.1837,-0.67344 2.85714,0 0.33672,0.33671 -0.33672,1.09185 0,1.42857 0.33672,0.33672 0.95238,0 1.42857,0 0.67357,0 7.078111,-0.0648 7.142861,0 0.33672,0.33672 -0.33672,1.09185 0,1.42857 0.71428,0.71429 3.57143,-0.71429 4.28571,0 0.33672,0.33672 -0.39621,1.16443 0,1.42857 1.25294,0.83529 2.82483,1.06335 4.28572,1.42857 0.46197,0.1155 1.09185,-0.33671 1.42857,0 0.33672,0.33672 -0.33672,1.09186 0,1.42857 0.71428,0.71429 3.57143,-0.71428 4.28571,0 0.33672,0.33672 -0.33671,1.09186 0,1.42858 0.33672,0.33671 1.00266,-0.21296 1.42857,0 0.60234,0.30117 0.82624,1.1274 1.42858,1.42857 0.42591,0.21296 1.09185,-0.33672 1.42857,0 0.33671,0.33671 -0.33672,1.09185 0,1.42857 0.33671,0.33672 1.09185,-0.33672 1.42857,0 0.33672,0.33672 -0.33672,1.09185 0,1.42857 0.71428,0.71429 3.57143,-0.71429 4.28571,0 0.33672,0.33672 -0.33671,1.09185 0,1.42857 0.67344,0.67344 2.00531,-0.42592 2.85715,0 1.20467,0.60234 1.65246,2.25481 2.85714,2.85714 0.42592,0.21296 1.09185,-0.33671 1.42857,0 0.33672,0.33672 -0.33672,1.09186 0,1.42858 0.0648,0.0647 6.46929,0 7.14286,0 0.98646,0 5.27995,-0.21717 5.71428,0 0.60234,0.30117 0.82624,1.1274 1.42857,1.42857 1.14286,0.57143 3.142857,-0.57143 4.285717,0 0.60234,0.30117 0.82623,1.1274 1.42857,1.42857 0.42592,0.21296 1.09185,-0.33672 1.42857,0 0.33672,0.33672 -0.33672,1.09185 0,1.42857 0.34376,0.34376 5.37053,-0.34376 5.71429,0 0.33671,0.33672 -0.33672,1.09185 0,1.42857 0.33671,0.33672 0.95238,0 1.42857,0 1.42857,0 2.93045,-0.45175 4.28571,0 0.45176,0.15059 -0.33671,1.09186 0,1.42857 0.67344,0.67344 2.18371,-0.67343 2.85715,0 0.33671,0.33672 -0.33672,1.09186 0,1.42857 0.33671,0.33672 0.95238,0 1.42857,0 0.47619,0 0.95238,0 1.42857,0 1.01257,0 8.20207,-0.18467 8.57143,0 0.60234,0.30117 0.82623,1.12741 1.42857,1.42858 0.37563,0.18781 4.96725,0 5.71428,0 4.28572,0 8.57143,0 12.85715,0 3.33333,0 6.66666,0 10,0 1.42857,0 2.93045,-0.45176 4.28571,0 0.63888,0.21295 0.82623,1.1274 1.42857,1.42857 0.43477,0.21738 3.64235,0 4.28572,0 3.33333,0 6.66666,0 10,0 0.47619,0 0.95238,0 1.42857,0 0.47619,0 1.42857,-0.47619 1.42857,0 0,0.47619 -0.95238,0 -1.42857,0"
         style="fill:none;fill-rule:evenodd;stroke:#000000;stroke-width:1px;stroke-linecap:butt;stroke-linejoin:miter;stroke-opacity:1" />
      <path
         inkscape:connector-curvature="0"
         id="path5040"
         d="m -112.85714,470.93363 c 4.89201,1.49231 4.41565,-4.35068 7.14285,-5.71428 0.42592,-0.21296 0.95239,0 1.42858,0 0.47619,0 1.90476,0 1.42857,0 -0.95238,0 -3.80953,0 -2.85715,0 1.42858,0 2.85715,0 4.28572,0 0.47619,0 0.95238,0 1.42857,0 0.47619,0 1.002654,-0.21296 1.428571,0 0.602339,0.30117 0.826233,1.1274 1.428572,1.42857 0.425918,0.21296 1.091854,-0.33672 1.428571,0 0.336718,0.33672 -0.336717,1.09185 0,1.42857 0.673435,0.67344 2.183708,-0.67343 2.857143,0 0.336718,0.33672 -0.336717,1.09185 0,1.42857 0.210084,0.21009 4.285714,-0.16807 4.285714,0 0,0.47619 -1.904762,0 -1.428571,0 3.333333,0 6.666667,0 10,0 0.47619,0 0.952381,0 1.428571,0 0.476191,0 1.091854,-0.33672 1.428572,0 0.336717,0.33672 -0.336718,1.09186 0,1.42857 0.336717,0.33672 0.952381,0 1.428571,0 0.476191,0 1.904762,0 1.428572,0 -0.952381,0 -3.530578,-0.67343 -2.857143,0 10.305135,3.43505 2.525063,-0.66416 4.285714,2.85715 2.972686,5.94537 -0.09862,-1.5272 2.857143,1.42857 0.336717,0.33671 -0.336718,1.09185 0,1.42857 0.210084,0.21008 4.285714,-0.16807 4.285714,0 0,0.47619 -1.428571,0.47619 -1.428571,0 0,-0.67344 0.826233,-1.1274 1.428571,-1.42857 3.809524,0 -0.47619,0.47619 1.428572,-1.42857 1.904762,-1.90477 1.428571,2.38095 1.428571,-1.42858"
         style="fill:none;fill-rule:evenodd;stroke:#000000;stroke-width:1px;stroke-linecap:butt;stroke-linejoin:miter;stroke-opacity:1" />
      <path
         inkscape:connector-curvature="0"
         id="path5042"
         d="m -104.57143,482.3622 c -0.69757,-5.72505 6.66041,-1.90163 8.57143,-2.85714 0.580556,-0.29028 2.276587,-2.56686 2.857143,-2.85714 0.851835,-0.42592 2.005307,0.42592 2.857143,0 0.602338,-0.30117 0.826232,-1.1274 1.428571,-1.42857 0.851836,-0.42592 2.183708,0.67343 2.857143,0 0.336717,-0.33672 -0.336718,-1.09186 0,-1.42857 0.201465,-0.20147 3.992674,-0.14652 4.285714,0 0.602339,0.30117 1.904762,0.95238 1.428572,1.42857 -1.364244,1.36424 -3.021929,-7.63722 0,1.42857 0.301169,0.90351 -0.673435,2.18371 0,2.85714 0.04594,0.0459 3.939247,0 4.285714,0 2.857143,0 5.714286,0 8.571429,0 0.47619,0 1.428571,-0.47619 1.428571,0 0,0.47619 -1.904762,0 -1.428571,0 0.95238,0 2.005307,-0.42592 2.857142,0 0.425918,0.21296 -0.336717,1.09186 0,1.42857 3.809524,0 -0.47619,-0.47619 1.428572,1.42857 0.336717,0.33672 0.952381,0 1.428571,0 0.476191,0 0.952381,0 1.428572,0 5.278625,0 3.836746,0 7.142857,0"
         style="fill:none;fill-rule:evenodd;stroke:#000000;stroke-width:1px;stroke-linecap:butt;stroke-linejoin:miter;stroke-opacity:1" />
      <path
         inkscape:connector-curvature="0"
         id="path5044"
         d="m -99.714286,506.64792 c 14.721797,0 21.180419,0 34.285715,0"
         style="fill:none;fill-rule:evenodd;stroke:#000000;stroke-width:1px;stroke-linecap:butt;stroke-linejoin:miter;stroke-opacity:1" />
      <rect
         ry="19.5"
         y="356.64792"
         x="-35.714287"
         height="165.71428"
         width="200"
         id="rect5090"
         style="fill:none;fill-opacity:1;stroke:#535353;stroke-width:3.5;stroke-linecap:butt;stroke-linejoin:round;stroke-miterlimit:4;stroke-dasharray:14, 3.5;stroke-dashoffset:0;stroke-opacity:1" />
    </g>
    <g
       id="g5171"
       clip-path="url(#clipPath5183)"
       transform="translate(-847.45763,129.6882)">
      <path
         inkscape:connector-curvature="0"
         id="path4990-7-2"
         d="m -139.80427,884.07583 c 15.71429,0 31.42857,0 47.142862,0 3.333329,0 6.666669,0 9.999999,0 0.47619,0 1.09185,-0.33672 1.42857,0 0.336721,0.33671 -0.33672,1.09185 0,1.42857 0.714291,0.71428 3.57143,-0.71429 4.28572,0 0.33671,0.33671 -0.33672,1.09185 0,1.42857 0.71428,0.71428 3.57142,-0.71429 4.28571,0 0.33672,0.33672 -0.33672,1.09185 0,1.42857 0.0459,0.0459 3.939251,0 4.285711,0 1.90477,0 3.80953,0 5.71429,0 0.47619,0 0.95238,0 1.42857,0 0.47619,0 1.42857,-0.47619 1.42857,0 0,0.47619 -1.90476,0 -1.42857,0 0.95238,0 1.90476,0 2.85714,0 1.90477,0 3.80953,0 5.71429,0 0.47619,0 0.95238,0 1.42857,0 0.47619,0 1.42857,-0.47619 1.42857,0 0,0.47619 -1.42857,0.47619 -1.42857,0 0,-0.67343 0.82623,-1.1274 1.42857,-1.42857 3.80953,0 -0.47619,0.47619 1.42857,-1.42857 0.33672,-0.33672 1.09186,0.33671 1.42858,0 0.67343,-0.67344 -0.67344,-2.18371 0,-2.85715 0.33671,-0.33671 1.09185,0.33672 1.42857,0 0.29205,-0.29205 -0.28321,-3.71929 0,-4.28571 0.30117,-0.60234 1.1274,-0.82623 1.42857,-1.42857 0.28321,-0.56642 -0.29205,-3.99366 0,-4.28572 0.33672,-0.33671 1.09185,0.33672 1.42857,0 0.67343,-0.67343 -0.30117,-1.95363 0,-2.85714 0.33672,-1.01015 1.09185,-1.84699 1.42857,-2.85714 0.15059,-0.45176 -0.33672,-1.09186 0,-1.42857 0.33672,-0.33672 1.09186,0.33671 1.42857,0 0.71429,-0.71429 -0.71428,-3.57143 0,-4.28572 0.33672,-0.33671 1.09186,0.33672 1.42857,0 0.71429,-0.71428 -0.71428,-3.57143 0,-4.28571 0.33672,-0.33672 1.00266,0.21296 1.42858,0 5.94537,-2.97269 -1.5272,0.0986 1.42857,-2.85714 0.0647,-0.0648 6.46929,0 7.142851,0 1.40817,0 4.26531,0 2.85715,0 -8.158861,0 2.66347,-0.19367 2.85714,0 0.33672,0.33671 -0.33672,1.09185 0,1.42857 0.67343,0.67343 2.18371,-0.67344 2.85714,0 0.33672,0.33671 -0.33671,1.09185 0,1.42857 0.33672,0.33672 1.00266,-0.21296 1.42857,0 0.60234,0.30117 0.82624,1.1274 1.42858,1.42857 0.42591,0.21296 1.09185,-0.33672 1.42857,0 0.33671,0.33672 -0.33672,1.09185 0,1.42857 0.33671,0.33672 1.09185,-0.33672 1.42857,0 0.33672,0.33672 -0.33672,1.09186 0,1.42857 0.33672,0.33672 1.09185,-0.33671 1.42857,0 0.33672,0.33672 -0.33672,1.09186 0,1.42857 0.33672,0.33672 1.09185,-0.33671 1.42857,0 0.33672,0.33672 -0.33672,1.09186 0,1.42858 0.33672,0.33671 1.09186,-0.33672 1.42857,0 0.33672,0.33671 -0.33671,1.09185 0,1.42857 0.44236,0.44235 6.70051,-0.44236 7.14286,0 0.33672,0.33671 -0.33672,1.09185 0,1.42857 0.67343,0.67343 2.18371,-0.67344 2.85714,0 0.33672,0.33672 -0.33671,1.09185 0,1.42857 0.33672,0.33672 1.42857,-0.47619 1.42857,0 0,2.02381 -6.66666,-4.04762 1.42858,0 0.42591,0.21296 -0.33672,1.09185 0,1.42857 0.33671,0.33672 1.00265,-0.21296 1.42857,0 0.60234,0.30117 0.82623,1.1274 1.42857,1.42857 0.56642,0.28321 3.99366,-0.29205 4.28571,0 0.33672,0.33672 -0.33671,1.09186 0,1.42857 0.29205,0.29206 3.7193,-0.2832 4.28572,0 1.20467,0.60234 1.65246,2.25481 2.85714,2.85715 0.85184,0.42591 2.18371,-0.67344 2.857137,0 0.33672,0.33671 -0.336707,1.09185 0,1.42857 0.33672,0.33672 1.09186,-0.33672 1.42857,0 0.33672,0.33672 -0.33671,1.09185 0,1.42857 0.71429,0.71429 3.57143,-0.71429 4.28572,0 0.33672,0.33672 -0.33672,1.09185 0,1.42857 0.33672,0.33672 0.95238,0 1.42857,0 0.47619,0 0.95238,0 1.42857,0 1.01258,0 8.20207,-0.18468 8.57143,0 0.60234,0.30117 0.82623,1.1274 1.42857,1.42857 0.36936,0.18468 7.55886,0 8.57143,0 6.19048,0 12.38095,0 18.57143,0 0.47619,0 0.95238,0 1.42857,0 0.47619,0 1.09185,-0.33671 1.42857,0 0.33672,0.33672 -0.33672,1.09186 0,1.42857 0.0459,0.046 3.93925,0 4.28572,0 5.23809,0 10.47619,0 15.71428,0 1.90476,0 3.80953,0 5.71429,0 0.47619,0 0.95238,0 1.42857,0 0.47619,0 1.42857,-0.47619 1.42857,0 0,0.47619 -1.90476,0 -1.42857,0 0.95238,0 1.90476,0 2.85714,0"
         style="fill:none;fill-rule:evenodd;stroke:#000000;stroke-width:1px;stroke-linecap:butt;stroke-linejoin:miter;stroke-opacity:1" />
      <path
         inkscape:connector-curvature="0"
         id="path4994-5-8"
         d="m -142.66141,875.50439 c 8.13043,0 16.26087,0 24.3913,0 0.54765,0 5.75482,0.0648 5.80746,0 0.27377,-0.33671 -0.27377,-1.09185 0,-1.42857 0.27377,-0.33671 0.77433,0 1.16149,0 0.38716,0 0.77433,0 1.16149,0 3.09731,0 6.19462,0 9.29193,0 0.38716,0 0.887722,0.33672 1.161492,0 0.27376,-0.33671 -0.27377,-1.09185 0,-1.42857 0.54753,-0.67343 1.77544,0.67344 2.32298,0 0.27377,-0.33672 -0.27377,-1.09185 0,-1.42857 0.27377,-0.33672 0.8152,0.21296 1.16149,0 0.48973,-0.30117 0.67176,-1.1274 1.16149,-1.42857 0.69258,-0.42592 1.77545,0.67343 2.32299,0 0.27376,-0.33672 -0.27377,-1.09186 0,-1.42857 0.27376,-0.33672 0.77432,0 1.16149,0 0.77432,0 1.548649,0 2.32297,0 0.387169,0 1.16149,-0.47619 1.16149,0 0,0.47619 -1.548651,0 -1.16149,0 0.774329,0 1.548659,0 2.32298,0 0.38717,0 0.887729,0.33671 1.16149,0 0.27377,-0.33672 -0.273761,-1.09186 0,-1.42857 0.27377,-0.33672 0.887729,0.33671 1.161499,0 0.273761,-0.33672 -0.27377,-1.09186 0,-1.42858 0.273761,-0.33671 0.88772,0.33672 1.16149,0 0.547531,-0.67343 -0.34629,-2.0053 0,-2.85714 0.489731,-1.20468 1.833251,-1.65246 2.32298,-2.85714 0.346291,-0.85184 -0.54754,-2.18371 0,-2.85714 0.273771,-0.33672 0.887721,0.33671 1.161491,0 0.23745,-0.29206 -0.23026,-3.7193 0,-4.28572 0.24486,-0.60234 0.916619,-0.82623 1.161489,-1.42857 0.36501,-0.89789 -0.365009,-4.8164 0,-5.71429 0.24486,-0.60233 0.91662,-0.82623 1.16149,-1.42857 0.17314,-0.42591 0,-0.95238 0,-1.42857 0,-0.47619 0,-0.95238 0,-1.42857 0,-2.38095 0,-4.7619 0,-7.14286 0,-0.47619 0,-0.95238 0,-1.42857 0,-0.47619 -0.17314,-1.00265 0,-1.42857 0.24486,-0.60234 0.91663,-0.82623 1.161501,-1.42857 0.150139,-0.36936 0,-7.55886 0,-8.57143 0,-0.47619 0,-0.95238 0,-1.42857 0,-0.47619 -0.27377,-1.09186 0,-1.42857 0.273759,-0.33672 0.88772,0.33671 1.16149,0 0.547519,-0.67344 -0.54754,-2.18371 0,-2.85715 0.273759,-0.33671 0.88772,0.33672 1.16149,0 0.273759,-0.33671 0,-0.95238 0,-1.42857 0,-0.47619 0,-0.95238 0,-1.42857 0,-1.01257 -0.15016,-8.20207 0,-8.57143 0.244859,-0.60234 0.916619,-0.82623 1.161479,-1.42857 0.15016,-0.36936 0,-7.55885 0,-8.57143 0,-0.47619 -0.27376,-1.09185 0,-1.42857 0.27377,-0.33672 0.887731,0.33672 1.16149,0 0.27377,-0.33672 0,-0.95238 0,-1.42857 0,-0.95238 -0.346289,-2.00531 0,-2.85714 0.17315,-0.42592 0.98835,0.42592 1.16149,0 0.365021,-0.89789 -0.365,-4.8164 0,-5.71429 0.24487,-0.60234 0.988361,-0.78969 1.161491,-1.42857 0.17709,-0.65341 -0.25841,-5.0786 0,-5.71429 0.24487,-0.60233 0.91664,-0.82623 1.1615,-1.42857 0.17314,-0.42591 -0.27377,-1.09185 0,-1.42857 0.27376,-0.33672 0.88772,0.33672 1.16149,0 0.54753,-0.67343 -0.34629,-2.00531 0,-2.85714 0.24486,-0.60234 0.91663,-0.82623 1.16149,-1.42857 0.17315,-0.42592 -0.27377,-1.09186 0,-1.42857 1.5942,-1.96079 1.16149,2.521 1.16149,2.85714 0,0.47619 0.38716,1.42857 0,1.42857 -0.38716,0 0,-1.90476 0,-1.42857 0,0.33947 -0.13016,5.3941 0,5.71428 0.24486,0.60234 0.91662,0.82624 1.16149,1.42858 0.17314,0.42591 -0.17315,1.00265 0,1.42857 0.24486,0.60234 0.91662,0.82623 1.16149,1.42857 0.17314,0.42592 0.38716,1.42857 0,1.42857 -0.38716,0 0,-1.90476 0,-1.42857 0,0.95238 -0.34629,2.00531 0,2.85714 0.17314,0.42592 0.88773,-0.33672 1.16149,0 0.54753,0.67344 -0.34629,2.00531 0,2.85714 0.24486,0.60234 0.91663,0.82624 1.1615,1.42858 0.17313,0.42591 -0.27377,1.09185 0,1.42857 0.27376,0.33671 0.88772,-0.33672 1.16149,0 0.27375,0.33671 0,0.95238 0,1.42857 0,0.47619 0.38716,1.42857 0,1.42857 -0.38717,0 -0.38717,-1.42857 0,-1.42857 0.54752,0 0.91662,0.82623 1.16148,1.42857 0.17315,0.42592 -0.17314,1.00265 0,1.42857 0.24487,0.60234 0.91663,0.82623 1.16149,1.42857 0.17315,0.42592 -0.27376,1.09186 0,1.42857 0.27377,0.33672 0.8152,-0.21295 1.16149,0 0.48973,0.30117 0.77433,0.95239 1.16149,1.42858 0.38717,0.47619 0.91663,0.82623 1.16149,1.42857 0.17315,0.42592 -0.27376,1.09185 0,1.42857 0.54754,0.67343 1.77545,-0.67344 2.32299,0 0.27376,0.33672 -0.27377,1.09185 0,1.42857 0.27376,0.33672 0.88772,-0.33672 1.16149,0 0.54753,0.67344 -0.54754,2.18371 0,2.85714 3.0973,0 -0.38716,-0.47619 1.16149,1.42857 0.1708,0.21009 3.48447,-0.16806 3.48447,0 0,0.47619 -1.54866,0 -1.16149,0 6.58178,0 0.38716,-0.95238 2.32299,1.42858 0.24831,0.30542 4.00559,-0.26254 4.64595,0 0.8213,0.33671 1.50169,1.09185 2.32298,1.42857 0.81672,0.33484 5.48909,-0.39159 5.80746,0 0.27377,0.33671 -0.27377,1.09185 0,1.42857 0.27377,0.33672 0.77432,0 1.16149,0 0.38716,0 0.77432,0 1.16149,0 0.426541,0 4.599221,-0.0575 4.645961,0 0.27377,0.33672 -0.27376,1.09185 0,1.42857 0.27377,0.33672 0.77433,0 1.16149,0 0.54764,0 5.75481,-0.0648 5.80746,0 0.27377,0.33672 -0.27377,1.09185 0,1.42857 0.58074,0.71429 2.90373,-0.71428 3.48447,0 0.27377,0.33672 -0.27376,1.09186 0,1.42857 0.54753,0.67344 1.77545,-0.67343 2.32298,0 0.27376,0.33672 -0.27376,1.09186 0,1.42857 0.54753,0.67344 1.77545,-0.67343 2.32298,0 0.27377,0.33672 -0.27376,1.09186 0,1.42858 0.58074,0.71428 2.90373,-0.71429 3.48447,0 0.27377,0.33671 -0.27376,1.09185 0,1.42857 0.27377,0.33671 0.88773,-0.33672 1.16149,0 0.27377,0.33671 -0.27376,1.09185 0,1.42857 0.27377,0.33672 0.7942,-0.15059 1.1615,0 0.82129,0.33672 1.50168,1.09185 2.32298,1.42857 0.73459,0.30117 1.77545,-0.67343 2.32298,0 0.27377,0.33672 -0.27377,1.09185 0,1.42857 0.58075,0.71429 2.90373,-0.71428 3.48447,0 0.27376,0.33672 -0.27376,1.09186 0,1.42857 0.27376,0.33672 0.8152,-0.21296 1.16149,0 0.48973,0.30117 0.67176,1.12741 1.16149,1.42857 0.34629,0.21296 1.16149,-0.47619 1.16149,0 0,0.42688 -3.85218,-0.94041 0,1.42858 0.34629,0.21295 0.88772,-0.33672 1.16149,0 0.27377,0.33671 -0.27377,1.09185 0,1.42857 0.27377,0.33671 0.88773,-0.33672 1.16149,0 0.27377,0.33671 -0.32213,1.16443 0,1.42857 0.82224,4.3558 3.21817,0.55052 4.64597,1.42857 0.48973,0.30117 0.67176,1.1274 1.16149,1.42857 0.69258,0.42592 1.6304,-0.42592 2.32298,0 0.97945,0.60234 1.343527,2.25481 2.322977,2.85714 0.69258,0.42592 1.6304,-0.42591 2.32298,0 0.48973,0.30117 0.67176,1.12741 1.16149,1.42858 0.46053,0.2832 3.24702,-0.29206 3.48447,0 0.27377,0.33671 -0.27376,1.09185 0,1.42857 0.27377,0.33671 0.81521,-0.21296 1.1615,0 0.48972,0.30117 0.67176,1.1274 1.16149,1.42857 0.63009,0.38749 4.32815,-0.39089 4.64596,0 0.27376,0.33672 -0.27376,1.09185 0,1.42857 0.31781,0.39089 4.01587,-0.38749 4.64596,0 0.48973,0.30117 0.67176,1.1274 1.16149,1.42857 0.69258,0.42592 1.77545,-0.67343 2.32298,0 0.27377,0.33672 -0.27376,1.09186 0,1.42857 0.27377,0.33672 0.81521,-0.21296 1.16149,0 0.48973,0.30117 0.67177,1.12741 1.1615,1.42857 0.69257,0.42592 1.77544,-0.67343 2.32298,0 0.27376,0.33672 -0.27377,1.09186 0,1.42858 0.58074,0.71428 2.90372,-0.71429 3.48447,0 0.27376,0.33671 -0.34629,1.21561 0,1.42857 0.69258,0.42592 1.6304,-0.42592 2.32298,0 0.34629,0.21296 -0.27377,1.09185 0,1.42857 0.23745,0.29205 3.02395,-0.28321 3.48447,0 0.48973,0.30117 0.64205,1.21561 1.16149,1.42857 0.79017,0.32395 5.19158,-0.37874 5.80746,0 0.48973,0.30117 0.67176,1.1274 1.16149,1.42857 0.35347,0.21738 2.96138,0 3.48446,0 2.71015,0 5.4203,0 8.13044,0 1.06857,0 2.43913,-0.25714 3.48448,0 1.56531,0.38505 3.08064,1.04352 4.64595,1.42857 1.24186,0.30549 4.37564,0 5.80746,0 3.87164,0 7.74327,0 11.61491,0 2.71014,0 5.42029,0 8.13044,0 0.38716,0 0.77432,0 1.16149,0 0.38716,0 1.16149,-0.47619 1.16149,0 0,0.47619 -1.54866,0 -1.16149,0 0.77432,0 1.63039,0.42592 2.32297,0 0.3463,-0.21296 -0.27376,-1.09185 0,-1.42857 0.58075,-0.71428 2.90373,0.71429 3.48448,0 0.27376,-0.33672 -0.27377,-1.09185 0,-1.42857 0.27376,-0.33672 0.77433,0 1.16149,0 0.38716,0 0.77433,0 1.16149,0 0.77433,0 1.54865,0 2.32298,0 0.38716,0 1.16149,-0.47619 1.16149,0 0,0.47619 -1.54865,0 -1.16149,0 0.77433,0 1.54865,0 2.32298,0"
         style="fill:none;fill-rule:evenodd;stroke:#000000;stroke-width:0.90168923px;stroke-linecap:butt;stroke-linejoin:miter;stroke-opacity:1" />
      <path
         inkscape:connector-curvature="0"
         id="path4996-2-3"
         d="m -149.80425,905.21868 c 1.14527,6.02127 4.97109,0.34269 7.14285,1.42857 0.60234,0.30117 0.82624,1.12741 1.42857,1.42857 0.42592,0.21296 1.00266,-0.21295 1.42858,0 0.60233,0.30117 0.82623,1.12741 1.42857,1.42858 0.42591,0.21295 0.95238,0 1.42857,0 0.47619,0 0.95238,0 1.42857,0 2.85714,0 5.71429,0 8.57143,0 9.52381,0 19.04762,0 28.571432,0 3.80952,0 7.61904,0 11.42857,0 0.47619,0 1.091849,0.33671 1.428569,0 0.33672,-0.33672 -0.33672,-1.09186 0,-1.42858 0.673431,-0.67343 2.183711,0.67344 2.85714,0 0.67344,-0.67343 -0.673429,-2.1837 0,-2.85714 3.809531,0 -0.47619,0.47619 1.428571,-1.42857 0.33672,-0.33672 1.09186,0.33672 1.42858,0 0.33671,-0.33672 -0.33672,-1.09185 0,-1.42857 0.33671,-0.33672 1.091849,0.33672 1.428569,0 0.336711,-0.33672 -0.33672,-1.09186 0,-1.42857 0.34376,-0.34376 5.37052,0.34376 5.71428,0 0.33672,-0.33672 -0.336709,-1.09186 0,-1.42857 0.33672,-0.33672 1.09186,0.33671 1.428571,0 0.292059,-0.29206 -0.283201,-3.7193 0,-4.28572 0.30117,-0.60234 1.12741,-0.82623 1.42858,-1.42857 0.42591,-0.85184 -0.67344,-2.18371 0,-2.85714 0.33671,-0.33672 1.09185,0.33671 1.42857,0 0.71428,-0.71429 -0.71429,-3.57143 0,-4.28572 0.33671,-0.33671 1.09185,0.33672 1.42857,0 0.34376,-0.34376 -0.34376,-5.37052 0,-5.71428 0.33672,-0.33672 1.09185,0.33671 1.42857,0 0.29205,-0.29205 -0.28321,-3.7193 0,-4.28572 0.30117,-0.60234 1.1274,-0.82623 1.42857,-1.42857 0.18468,-0.36936 0,-7.55885 0,-8.57143 0,-0.47619 -0.33672,-1.09185 0,-1.42857 0.33672,-0.33672 1.09186,0.33672 1.42857,0 0.34376,-0.34376 -0.34376,-5.37053 0,-5.71428 0.046,-0.046 3.93925,0 4.28572,0 1.42857,0 2.85714,0 4.28571,0 0.47619,0 1.42857,-0.47619 1.42857,0 0,0.47619 -1.90476,0 -1.42857,0 0.95238,0 2.00531,-0.42592 2.85714,0 0.42592,0.21295 -0.33671,1.09185 0,1.42857 0.67344,0.67343 2.18371,-0.67344 2.85715,0 0.33671,0.33671 -0.21296,1.00265 0,1.42857 0.30117,0.60234 1.1274,0.82623 1.42857,1.42857 0.21296,0.42592 -0.33672,1.09185 0,1.42857 0.67343,0.67344 2.18371,-0.67343 2.85714,0 0.67344,0.67344 -0.67343,2.18371 0,2.85714 0.67344,0.67344 2.18371,-0.67343 2.85714,0 0.33672,0.33672 -0.33671,1.09186 0,1.42858 0.67344,0.67343 2.18371,-0.67344 2.85715,0 0.33671,0.33671 -0.33672,1.09185 0,1.42857 0.67343,0.67343 2.1837,-0.67344 2.85714,0 0.33672,0.33671 -0.33672,1.09185 0,1.42857 0.33672,0.33672 0.95238,0 1.42857,0 0.67357,0 7.078111,-0.0648 7.142861,0 0.33672,0.33672 -0.33672,1.09185 0,1.42857 0.71428,0.71429 3.57143,-0.71429 4.28571,0 0.33672,0.33672 -0.39621,1.16443 0,1.42857 1.25294,0.83529 2.82483,1.06335 4.28572,1.42857 0.46197,0.1155 1.09185,-0.33671 1.42857,0 0.33672,0.33672 -0.33672,1.09186 0,1.42857 0.71428,0.71429 3.57143,-0.71428 4.28571,0 0.33672,0.33672 -0.33671,1.09186 0,1.42858 0.33672,0.33671 1.00266,-0.21296 1.42857,0 0.60234,0.30117 0.82624,1.1274 1.42858,1.42857 0.42591,0.21296 1.09185,-0.33672 1.42857,0 0.33671,0.33671 -0.33672,1.09185 0,1.42857 0.33671,0.33672 1.09185,-0.33672 1.42857,0 0.33672,0.33672 -0.33672,1.09185 0,1.42857 0.71428,0.71429 3.57143,-0.71429 4.28571,0 0.33672,0.33672 -0.33671,1.09185 0,1.42857 0.67344,0.67344 2.00531,-0.42592 2.85715,0 1.20467,0.60234 1.65246,2.25481 2.85714,2.85714 0.42592,0.21296 1.09185,-0.33671 1.42857,0 0.33672,0.33672 -0.33672,1.09186 0,1.42858 0.0648,0.0647 6.46929,0 7.14286,0 0.98646,0 5.27995,-0.21717 5.71428,0 0.60234,0.30117 0.82624,1.1274 1.42857,1.42857 1.14286,0.57143 3.142857,-0.57143 4.285717,0 0.60234,0.30117 0.82623,1.1274 1.42857,1.42857 0.42592,0.21296 1.09185,-0.33672 1.42857,0 0.33672,0.33672 -0.33672,1.09185 0,1.42857 0.34376,0.34376 5.37053,-0.34376 5.71429,0 0.33671,0.33672 -0.33672,1.09185 0,1.42857 0.33671,0.33672 0.95238,0 1.42857,0 1.42857,0 2.93045,-0.45175 4.28571,0 0.45176,0.15059 -0.33671,1.09186 0,1.42857 0.67344,0.67344 2.18371,-0.67343 2.85715,0 0.33671,0.33672 -0.33672,1.09186 0,1.42857 0.33671,0.33672 0.95238,0 1.42857,0 0.47619,0 0.95238,0 1.42857,0 1.01257,0 8.20207,-0.18467 8.57143,0 0.60234,0.30117 0.82623,1.12741 1.42857,1.42858 0.37563,0.18781 4.96725,0 5.71428,0 4.28572,0 8.57143,0 12.85715,0 3.33333,0 6.66666,0 10,0 1.42857,0 2.93045,-0.45176 4.28571,0 0.63888,0.21295 0.82623,1.1274 1.42857,1.42857 0.43477,0.21738 3.64235,0 4.28572,0 3.33333,0 6.66666,0 10,0 0.47619,0 0.95238,0 1.42857,0 0.47619,0 1.42857,-0.47619 1.42857,0 0,0.47619 -0.95238,0 -1.42857,0"
         style="fill:none;fill-rule:evenodd;stroke:#000000;stroke-width:1px;stroke-linecap:butt;stroke-linejoin:miter;stroke-opacity:1" />
      <path
         inkscape:connector-curvature="0"
         id="path5040-9"
         d="m -192.90699,872.3622 c 4.89201,1.49231 4.41565,-4.35068 7.14285,-5.71428 0.42592,-0.21296 0.95239,0 1.42858,0 0.47619,0 1.90476,0 1.42857,0 -0.95238,0 -3.80953,0 -2.85715,0 1.42858,0 2.85715,0 4.28572,0 0.47619,0 0.95238,0 1.42857,0 0.47619,0 1.00265,-0.21296 1.42857,0 0.60234,0.30117 0.82623,1.1274 1.42857,1.42857 0.42592,0.21296 1.09186,-0.33672 1.42857,0 0.33672,0.33672 -0.33671,1.09185 0,1.42857 0.67344,0.67344 2.18371,-0.67343 2.85715,0 0.33671,0.33672 -0.33672,1.09185 0,1.42857 0.21008,0.21009 4.28571,-0.16807 4.28571,0 0,0.47619 -1.90476,0 -1.42857,0 3.33333,0 6.66667,0 10,0 0.47619,0 0.95238,0 1.42857,0 0.47619,0 1.09185,-0.33672 1.42857,0 0.33672,0.33672 -0.33672,1.09186 0,1.42857 0.33672,0.33672 0.95238,0 1.42857,0 0.47619,0 1.90477,0 1.42858,0 -0.95239,0 -3.53058,-0.67343 -2.85715,0 10.30514,3.43505 2.52507,-0.66416 4.28572,2.85715 2.97268,5.94537 -0.0986,-1.5272 2.85714,1.42857 0.33672,0.33671 -0.33672,1.09185 0,1.42857 0.21008,0.21008 4.28571,-0.16807 4.28571,0 0,0.47619 -1.42857,0.47619 -1.42857,0 0,-0.67344 0.82624,-1.1274 1.42857,-1.42857 3.80953,0 -0.47619,0.47619 1.42858,-1.42857 1.90476,-1.90477 1.42857,2.38095 1.42857,-1.42858"
         style="fill:none;fill-rule:evenodd;stroke:#000000;stroke-width:1px;stroke-linecap:butt;stroke-linejoin:miter;stroke-opacity:1" />
      <path
         inkscape:connector-curvature="0"
         id="path5042-7"
         d="m -184.62128,883.79077 c -0.69757,-5.72505 6.66041,-1.90163 8.57143,-2.85714 0.58056,-0.29028 2.27659,-2.56686 2.85714,-2.85714 0.85184,-0.42592 2.00531,0.42592 2.85715,0 0.60233,-0.30117 0.82623,-1.1274 1.42857,-1.42857 0.85183,-0.42592 2.1837,0.67343 2.85714,0 0.33672,-0.33672 -0.33672,-1.09186 0,-1.42857 0.20147,-0.20147 3.99267,-0.14652 4.28571,0 0.60234,0.30117 1.90477,0.95238 1.42858,1.42857 -1.36425,1.36424 -3.02193,-7.63722 0,1.42857 0.30116,0.90351 -0.67344,2.18371 0,2.85714 0.0459,0.0459 3.93924,0 4.28571,0 2.85714,0 5.71429,0 8.57143,0 0.47619,0 1.42857,-0.47619 1.42857,0 0,0.47619 -1.90476,0 -1.42857,0 0.95238,0 2.00531,-0.42592 2.85714,0 0.42592,0.21296 -0.33672,1.09186 0,1.42857 3.80952,0 -0.47619,-0.47619 1.42857,1.42857 0.33672,0.33672 0.95238,0 1.42857,0 0.47619,0 0.95238,0 1.42858,0 5.27862,0 3.83674,0 7.14285,0"
         style="fill:none;fill-rule:evenodd;stroke:#000000;stroke-width:1px;stroke-linecap:butt;stroke-linejoin:miter;stroke-opacity:1" />
      <path
         inkscape:connector-curvature="0"
         id="path5044-4"
         d="m -179.76414,908.07649 c 14.7218,0 21.18042,0 34.28572,0"
         style="fill:none;fill-rule:evenodd;stroke:#000000;stroke-width:1px;stroke-linecap:butt;stroke-linejoin:miter;stroke-opacity:1" />
    </g>
    <rect
       style="fill:none;fill-opacity:1;stroke:#535353;stroke-width:4.18884277;stroke-linecap:butt;stroke-linejoin:round;stroke-miterlimit:4;stroke-dasharray:none;stroke-dashoffset:0;stroke-opacity:1"
       id="rect5187"
       width="253.59688"
       height="363.16614"
       x="-758.75928"
       y="331.23889"
       ry="28.00688" />
    <rect
       style="fill:none;fill-opacity:1;stroke:#535353;stroke-width:4.99066925;stroke-linecap:butt;stroke-linejoin:round;stroke-miterlimit:4;stroke-dasharray:none;stroke-dashoffset:0;stroke-opacity:1"
       id="rect5187-6"
       width="362.79504"
       height="360.34399"
       x="-468.66296"
       y="329.82327"
       ry="27.789242" />
    <rect
       style="fill:none;fill-opacity:1;stroke:#535353;stroke-width:4.99066925;stroke-linecap:butt;stroke-linejoin:round;stroke-miterlimit:4;stroke-dasharray:none;stroke-dashoffset:0;stroke-opacity:1"
       id="rect5187-6-1"
       width="362.79504"
       height="360.34399"
       x="-76.95079"
       y="326.37442"
       ry="27.789242" />
    <rect
       style="fill:none;fill-opacity:1;stroke:#535353;stroke-width:4.39461279;stroke-linecap:butt;stroke-linejoin:round;stroke-miterlimit:4;stroke-dasharray:none;stroke-dashoffset:0;stroke-opacity:1"
       id="rect5187-6-1-9"
       width="284.02487"
       height="356.89941"
       x="314.24213"
       y="329.23956"
       ry="27.523603" />
    <flowRoot
       xml:space="preserve"
       id="flowRoot5236"
       style="font-style:normal;font-weight:normal;font-size:40px;line-height:125%;font-family:sans-serif;letter-spacing:0px;word-spacing:0px;fill:#000000;fill-opacity:1;stroke:none;stroke-width:1px;stroke-linecap:butt;stroke-linejoin:miter;stroke-opacity:1"
       transform="translate(-64,-24.04061)"><flowRegion
         id="flowRegion5238"><rect
           id="rect5240"
           width="450"
           height="148.57144"
           x="-1097.1428"
           y="395.21936" /></flowRegion><flowPara
         id="flowPara5242">detector readout,</flowPara><flowPara
         id="flowPara5244">&quot;warm electronics&quot; </flowPara></flowRoot>    <flowRoot
       xml:space="preserve"
       id="flowRoot5261"
       style="font-style:normal;font-weight:normal;font-size:40px;line-height:125%;font-family:sans-serif;letter-spacing:0px;word-spacing:0px;fill:#000000;fill-opacity:1;stroke:none;stroke-width:1px;stroke-linecap:butt;stroke-linejoin:miter;stroke-opacity:1"
       transform="translate(-45.939085,26.263966)"><flowRegion
         id="flowRegion5263"><rect
           id="rect5265"
           width="327.14285"
           height="181.42857"
           x="-1108.5714"
           y="546.64795" /></flowRegion><flowPara
         id="flowPara5267">DAQ runs on its own computer</flowPara></flowRoot>    <flowRoot
       xml:space="preserve"
       id="flowRoot5269"
       style="font-style:normal;font-weight:normal;font-size:40px;line-height:125%;font-family:sans-serif;letter-spacing:0px;word-spacing:0px;fill:#000000;fill-opacity:1;stroke:none;stroke-width:1px;stroke-linecap:butt;stroke-linejoin:miter;stroke-opacity:1"
       transform="translate(-54.548237,-40.406102)"><flowRegion
         id="flowRegion5271"><rect
           id="rect5273"
           width="375.71429"
           height="141.42857"
           x="-1098.5714"
           y="788.07648" /></flowRegion><flowPara
         id="flowPara5275">Permanent Storage</flowPara></flowRoot>    <flowRoot
       xml:space="preserve"
       id="flowRoot5277"
       style="font-style:normal;font-weight:normal;font-size:40px;line-height:125%;font-family:sans-serif;letter-spacing:0px;word-spacing:0px;fill:#000000;fill-opacity:1;stroke:none;stroke-width:1px;stroke-linecap:butt;stroke-linejoin:miter;stroke-opacity:1"
       transform="translate(-460.62956,-6.0609105)"><flowRegion
         id="flowRegion5279"><rect
           id="rect5281"
           width="254.28572"
           height="75.714287"
           x="-688.57141"
           y="953.79077" /></flowRegion><flowPara
         id="flowPara5283">Event 1</flowPara></flowRoot>    <rect
       style="fill:#000000;fill-opacity:0.04469275;stroke:none;stroke-width:3.69237852;stroke-linecap:butt;stroke-linejoin:round;stroke-miterlimit:4;stroke-dasharray:none;stroke-dashoffset:0;stroke-opacity:1"
       id="rect5234-2-7"
       width="480.46423"
       height="450.38492"
       x="-1180.6842"
       y="733.22552"
       ry="37.02" />
    <path
       style="fill:#bcbcde;fill-opacity:1;fill-rule:evenodd;stroke:#5656a1;stroke-width:3;stroke-linecap:butt;stroke-linejoin:miter;stroke-miterlimit:4;stroke-dasharray:none;stroke-opacity:1"
       d="m 149.50258,539.20471 -28.28427,0 32.32488,-40.4061 30.30457,40.4061 -14.14213,0 c 0,0 -0.47591,92.94946 -18.18275,149.50258 -17.70684,56.55312 -49.14372,115.32432 -101.015253,175.76654 -51.8715343,60.44222 -116.223358,123.56484 -183.847767,153.54327 -67.62441,29.9784 -127.14854,35.2017 -197.98989,40.406 -70.84135,5.2043 -183.45168,4.3426 -246.47723,0 -63.02555,-4.3426 -131.31983,-18.1827 -131.31983,-18.1827 l -2.0203,16.1624 -30.30458,-38.3858 46.46702,-16.1624 -4.04061,18.1827 c 0,0 83.74543,12.1235 141.42136,14.1422 57.67593,2.0187 143.69096,7.6095 208.09142,2.0202 64.40046,-5.5893 123.812,-11.7858 177.78685,-34.3451 53.97485,-22.55929 104.756316,-67.20002 149.502574,-109.0965 44.746257,-41.89648 84.65341,-91.10691 115.15739,-143.44166 30.503976,-52.33475 47.690506,-117.59997 54.548236,-153.54319 6.85773,-35.94322 2.02031,-56.56854 2.02031,-56.56854 z"
       id="path5304"
       inkscape:connector-curvature="0"
       sodipodi:nodetypes="ccccczzzzzccccczzzzzzc" />
  </g>
</svg>
