<?xml version="1.0" encoding="UTF-8" standalone="no"?>
<?xml-stylesheet type="text/css" href="../css/dcrcPhonon.css"?><!-- Created with Inkscape (http://www.inkscape.org/) -->

<svg
   xmlns:dc="http://purl.org/dc/elements/1.1/"
   xmlns:cc="http://creativecommons.org/ns#"
   xmlns:rdf="http://www.w3.org/1999/02/22-rdf-syntax-ns#"
   xmlns:svg="http://www.w3.org/2000/svg"
   xmlns="http://www.w3.org/2000/svg"
   xmlns:xlink="http://www.w3.org/1999/xlink"
   xmlns:sodipodi="http://sodipodi.sourceforge.net/DTD/sodipodi-0.dtd"
   xmlns:inkscape="http://www.inkscape.org/namespaces/inkscape"
   xml:space="preserve"
   viewBox="0 0 2787.8247 1193.1987"
   height="100%"
   width="100%"
   version="1.1"
   inkscape:version="0.48.3.1 r9886"
   sodipodi:docname="charge_v1_web.svg"
   id="svg3097"><sodipodi:namedview
   pagecolor="#ffffff"
   bordercolor="#666666"
   borderopacity="1"
   objecttolerance="10"
   gridtolerance="10"
   guidetolerance="10"
   inkscape:pageopacity="0"
   inkscape:pageshadow="2"
   inkscape:window-width="1600"
   inkscape:window-height="876"
   id="namedview3145"
   showgrid="false"
   fit-margin-top="0"
   fit-margin-left="0"
   fit-margin-right="0"
   fit-margin-bottom="0"
   inkscape:zoom="0.18015402"
   inkscape:cx="118.27535"
   inkscape:cy="-395.41461"
   inkscape:window-x="0"
   inkscape:window-y="24"
   inkscape:window-maximized="1"
   inkscape:current-layer="svg3097"
   showborder="true"
   inkscape:object-paths="true" /><metadata
   id="metadata3010"><rdf:RDF><cc:Work
       rdf:about=""><dc:format>image/svg+xml</dc:format><dc:type
         rdf:resource="http://purl.org/dc/dcmitype/StillImage" /><dc:title></dc:title></cc:Work></rdf:RDF></metadata><defs
   id="defs3008">






<clipPath
   id="clipPath3020"
   clipPathUnits="userSpaceOnUse"><path
     inkscape:connector-curvature="0"
     id="path3022"
     d="m 0,0 1008,0 0,612 L 0,612 0,0 z" /></clipPath><marker
   style="overflow:visible"
   id="DotS"
   refX="0.0"
   refY="0.0"
   orient="auto"
   inkscape:stockid="DotS"><path
     transform="scale(0.2) translate(7.4, 1)"
     style="fill-rule:evenodd;stroke:#000000;stroke-width:1.0pt"
     d="M -2.5,-1.0 C -2.5,1.7600000 -4.7400000,4.0 -7.5,4.0 C -10.260000,4.0 -12.5,1.7600000 -12.5,-1.0 C -12.5,-3.7600000 -10.260000,-6.0 -7.5,-6.0 C -4.7400000,-6.0 -2.5,-3.7600000 -2.5,-1.0 z "
     id="path67342" /></marker><marker
   style="overflow:visible"
   id="DotM"
   refX="0.0"
   refY="0.0"
   orient="auto"
   inkscape:stockid="DotM"><path
     transform="scale(0.4) translate(7.4, 1)"
     style="fill-rule:evenodd;stroke:#000000;stroke-width:1.0pt"
     d="M -2.5,-1.0 C -2.5,1.7600000 -4.7400000,4.0 -7.5,4.0 C -10.260000,4.0 -12.5,1.7600000 -12.5,-1.0 C -12.5,-3.7600000 -10.260000,-6.0 -7.5,-6.0 C -4.7400000,-6.0 -2.5,-3.7600000 -2.5,-1.0 z "
     id="path67339" /></marker><marker
   style="overflow:visible"
   id="DotL"
   refX="0.0"
   refY="0.0"
   orient="auto"
   inkscape:stockid="DotL"><path
     transform="scale(0.8) translate(7.4, 1)"
     style="fill-rule:evenodd;stroke:#000000;stroke-width:1.0pt"
     d="M -2.5,-1.0 C -2.5,1.7600000 -4.7400000,4.0 -7.5,4.0 C -10.260000,4.0 -12.5,1.7600000 -12.5,-1.0 C -12.5,-3.7600000 -10.260000,-6.0 -7.5,-6.0 C -4.7400000,-6.0 -2.5,-3.7600000 -2.5,-1.0 z "
     id="path67336" /></marker><clipPath
   id="clipPath3020-8"
   clipPathUnits="userSpaceOnUse"><path
     inkscape:connector-curvature="0"
     id="path3022-4"
     d="m 0,0 1008,0 0,612 L 0,612 0,0 z" /></clipPath><marker
   style="overflow:visible"
   id="DotS-2"
   refX="0.0"
   refY="0.0"
   orient="auto"
   inkscape:stockid="DotS"><path
     transform="scale(0.2) translate(7.4, 1)"
     style="fill-rule:evenodd;stroke:#000000;stroke-width:1.0pt"
     d="M -2.5,-1.0 C -2.5,1.7600000 -4.7400000,4.0 -7.5,4.0 C -10.260000,4.0 -12.5,1.7600000 -12.5,-1.0 C -12.5,-3.7600000 -10.260000,-6.0 -7.5,-6.0 C -4.7400000,-6.0 -2.5,-3.7600000 -2.5,-1.0 z "
     id="path67342-5" /></marker><marker
   style="overflow:visible"
   id="DotM-7"
   refX="0.0"
   refY="0.0"
   orient="auto"
   inkscape:stockid="DotM"><path
     transform="scale(0.4) translate(7.4, 1)"
     style="fill-rule:evenodd;stroke:#000000;stroke-width:1.0pt"
     d="M -2.5,-1.0 C -2.5,1.7600000 -4.7400000,4.0 -7.5,4.0 C -10.260000,4.0 -12.5,1.7600000 -12.5,-1.0 C -12.5,-3.7600000 -10.260000,-6.0 -7.5,-6.0 C -4.7400000,-6.0 -2.5,-3.7600000 -2.5,-1.0 z "
     id="path67339-3" /></marker><marker
   style="overflow:visible"
   id="DotL-3"
   refX="0.0"
   refY="0.0"
   orient="auto"
   inkscape:stockid="DotL"><path
     transform="scale(0.8) translate(7.4, 1)"
     style="fill-rule:evenodd;stroke:#000000;stroke-width:1.0pt"
     d="M -2.5,-1.0 C -2.5,1.7600000 -4.7400000,4.0 -7.5,4.0 C -10.260000,4.0 -12.5,1.7600000 -12.5,-1.0 C -12.5,-3.7600000 -10.260000,-6.0 -7.5,-6.0 C -4.7400000,-6.0 -2.5,-3.7600000 -2.5,-1.0 z "
     id="path67336-2" /></marker></defs><rect
   style="fill:#509b41;fill-opacity:0.2;stroke:#4e9940;stroke-width:9.00000095;stroke-linecap:round;stroke-linejoin:round;stroke-miterlimit:4;stroke-dasharray:none;stroke-dashoffset:0"
   x="1170.5248"
   y="413.42218"
   stroke-miterlimit="4"
   width="570"
   height="211"
   ry="1.15"
   rx="0.634"
   class="charge"
   varName="ampOffset"
   id="rect67029" /><rect
   style="fill:#509b41;fill-opacity:0.2;stroke:#4e9940;stroke-width:9;stroke-linecap:round;stroke-linejoin:round;stroke-miterlimit:4;stroke-dasharray:none;stroke-dashoffset:0"
   x="6.524725"
   y="413.42218"
   stroke-miterlimit="4"
   width="570"
   height="211"
   ry="1.1"
   rx="0.63"
   class="chargeBox"
   varName="bias"
   id="rect67031" /><text
   x="35.524727"
   y="561.42212"
   font-size="100px"
   style="font-size:100px;text-anchor:start;fill:#000000;font-family:Serif"
   class="bias charge volts"
   id="text67142" />


<text
   sodipodi:linespacing="125%"
   x="-9.4548788"
   y="386.04755"
   font-variant="normal"
   font-size="58.26069641px"
   line-height="125%"
   xml:space="preserve"
   font-stretch="normal"
   font-style="normal"
   transform="scale(1.0231012,0.97742041)"
   font-weight="normal"
   style="font-size:58.26069641px;font-style:normal;font-variant:normal;font-weight:normal;font-stretch:normal;line-height:125%;letter-spacing:0px;word-spacing:0px;fill:#4e9940;font-family:Serif"
   id="text67146"><tspan
     x="-9.4548788"
     y="386.04755"
     font-variant="normal"
     dx="0"
     font-stretch="normal"
     line-height="125%"
     font-style="normal"
     font-size="133.16731262px"
     font-weight="bold"
     style="font-size:133.16731262px;font-style:normal;font-variant:normal;font-weight:bold;font-stretch:normal;text-align:start;line-height:125%;letter-spacing:-4px;word-spacing:-15.94301319px;writing-mode:lr-tb;text-anchor:start;fill:#4e9940;font-family:Purisa"
     id="tspan67148">Bias</tspan></text>


<text
   sodipodi:linespacing="125%"
   font-style="normal"
   x="1145.1025"
   y="386.02704"
   font-variant="normal"
   font-size="52.62957001px"
   line-height="125%"
   font-stretch="normal"
   transform="scale(1.0231012,0.97742041)"
   xml:space="preserve"
   font-weight="normal"
   style="font-size:52.62957001px;font-style:normal;font-variant:normal;font-weight:normal;font-stretch:normal;line-height:125%;letter-spacing:0px;word-spacing:0px;fill:#4e9940;font-family:Serif"
   id="text67150"><tspan
     x="1145.1025"
     y="386.02704"
     font-variant="normal"
     dx="0"
     font-stretch="normal"
     line-height="125%"
     font-style="normal"
     font-size="120.29616547px"
     font-weight="bold"
     style="font-size:120.29616547px;font-style:normal;font-variant:normal;font-weight:bold;font-stretch:normal;text-align:start;line-height:125%;letter-spacing:-4.71546793px;word-spacing:-14.40205765px;writing-mode:lr-tb;text-anchor:start;fill:#4e9940;font-family:Purisa"
     id="tspan67152">Vlock</tspan></text>


<g
   style="fill:none;stroke:#4e9940;stroke-width:10;stroke-linecap:round;stroke-linejoin:round;stroke-miterlimit:4;stroke-opacity:0.98431373;stroke-dasharray:none"
   stroke-miterlimit="4"
   id="g67179"
   transform="translate(-115.56173,-265.76408)"><path
     inkscape:connector-curvature="0"
     d="m 2140,896 45.7,43.1"
     id="path67175"
     style="stroke-width:10" /><path
     inkscape:connector-curvature="0"
     d="m 2140,949 43.1,-67.2"
     id="path67177"
     style="stroke-width:10" /></g><path
   style="fill:none;stroke:#4e9940;stroke-width:13;stroke-linecap:round;stroke-linejoin:round;stroke-miterlimit:4;stroke-dasharray:none"
   inkscape:connector-curvature="0"
   stroke-miterlimit="4"
   d="m 2320.5247,665.42215 -4.61,317.99997 -114,3.8 -10.1,10.1 -33,-83.7 -22.8,96.39998 -10.1,0 -35.5,-70.99998 -26.6,73.59998 -19,-8.88 -34.2,-49.49998 -5.07,50.69998 -8.88,22.8 -49.5,-86.19998 -15.2,52 -21.4741,-0.5775 -122.5259,-1.4605 0,149.99998 237,0"
   id="path66878"
   sodipodi:nodetypes="ccccccccccccccccccc" /><path
   style="fill:none;stroke:#4e9940;stroke-width:13;stroke-linecap:round;stroke-linejoin:round;stroke-miterlimit:4;stroke-dasharray:none"
   inkscape:connector-curvature="0"
   stroke-miterlimit="4"
   d="m 1866.4383,444.35598 0,452.92049 403.2268,-236.02129 z"
   id="path66848" /><path
   style="fill:none;stroke:#ff9b9b;stroke-width:10;stroke-linecap:butt;stroke-linejoin:miter;stroke-miterlimit:4;stroke-opacity:1;stroke-dasharray:none"
   d="m 909.3108,391.10722 0,-308.069734 259.1339,0"
   id="path3976"
   inkscape:connector-curvature="0"
   sodipodi:nodetypes="ccc" /><path
   sodipodi:type="arc"
   style="color:#000000;fill:#ff9b9b;fill-opacity:1;fill-rule:nonzero;stroke:none;stroke-width:0.5;marker:none;visibility:visible;display:inline;overflow:visible;enable-background:accumulate"
   id="path3195"
   sodipodi:cx="883.96582"
   sodipodi:cy="278.77899"
   sodipodi:rx="192.8905"
   sodipodi:ry="191.50281"
   d="m 1076.8563,278.77899 a 192.8905,191.50281 0 1 1 -385.78098,0 192.8905,191.50281 0 1 1 385.78098,0 z"
   transform="translate(24,262.19997)" /><path
   style="fill:none;stroke:#4e9940;stroke-width:13;stroke-linecap:round;stroke-linejoin:round;stroke-miterlimit:4;stroke-dasharray:none"
   inkscape:connector-curvature="0"
   stroke-miterlimit="4"
   d="m 910.52473,619.42215 0.592,214 762.07597,0 m 42.675,0 150.5706,0"
   id="path66852"
   sodipodi:nodetypes="ccccc" /><path
   style="fill:none;stroke:#4e9940;stroke-width:13;stroke-linecap:round;stroke-linejoin:round;stroke-miterlimit:4;stroke-dasharray:none"
   inkscape:connector-curvature="0"
   stroke-miterlimit="4"
   d="m 1742.5247,518.42215 123.9136,0"
   id="path66850"
   sodipodi:nodetypes="cc" /><path
   style="fill:none;stroke:#000000;stroke-width:13;stroke-linecap:round;stroke-linejoin:round;stroke-miterlimit:4;stroke-dasharray:none"
   inkscape:connector-curvature="0"
   stroke-miterlimit="4"
   d="m 2530.5247,665.42215 224,0.628 26.8,-2.42 -26.2,23.8 26.2,-23.8 -26.8,2.42 26.8,-2.42 -26.9,-21.5"
   id="path66840" /><path
   style="fill:none;stroke:#4e9940;stroke-width:13;stroke-linecap:round;stroke-linejoin:round;stroke-miterlimit:4;stroke-dasharray:none"
   inkscape:connector-curvature="0"
   stroke-miterlimit="4"
   d="m 2269.6651,661.25518 265.8596,4.16697"
   id="path66842"
   sodipodi:nodetypes="cc" /><path
   style="fill:none;stroke:#4e9940;stroke-width:13;stroke-linecap:round;stroke-linejoin:round;stroke-miterlimit:4;stroke-dasharray:none"
   inkscape:connector-curvature="0"
   stroke-miterlimit="4"
   d="m 1788.5247,841.42215 0,230.99995"
   id="path66844"
   sodipodi:nodetypes="cc" />
<text
   sodipodi:linespacing="125%"
   font-style="normal"
   x="1883.6409"
   y="665.19708"
   font-variant="normal"
   line-height="125%"
   stroke-miterlimit="4"
   font-stretch="normal"
   font-size="31.13534546px"
   xml:space="preserve"
   font-weight="normal"
   style="font-size:31.13534546px;font-style:normal;font-variant:normal;font-weight:normal;font-stretch:normal;line-height:125%;letter-spacing:0px;word-spacing:0px;fill:#4e9940;stroke:#4e9940;stroke-width:2.5;stroke-miterlimit:4;stroke-dasharray:none;font-family:Serif"
   id="text66994"><tspan
     x="1883.6409"
     y="665.19708"
     font-variant="normal"
     stroke-miterlimit="4"
     font-stretch="normal"
     line-height="125%"
     font-style="normal"
     font-size="71.16650391px"
     font-weight="bold"
     style="font-size:71.16650391px;font-style:normal;font-variant:normal;font-weight:bold;font-stretch:normal;text-align:start;line-height:125%;writing-mode:lr-tb;text-anchor:start;fill:#4e9940;stroke:#4e9940;stroke-width:2.5;stroke-miterlimit:4;stroke-dasharray:none;font-family:Purisa"
     id="tspan66996">x10</tspan></text>


<g
   transform="matrix(0,-1,1,0,-185.49233,2235.3127)"
   id="g3421"><g
     id="g66823"><path
       style="fill:none;stroke:#4e9940;stroke-width:2.5999999;stroke-linecap:butt;stroke-linejoin:round;stroke-miterlimit:10;stroke-dasharray:none;stroke-dashoffset:0"
       inkscape:connector-curvature="0"
       stroke-miterlimit="10"
       transform="matrix(5,0,0,5,42.544,-188.68035)"
       d="m 295,104 c 0,12.8 -10.4,23.2 -23.2,23.2 -12.8,0 -23.2,-10.4 -23.2,-23.2 0,-12.8 10.4,-23.2 23.2,-23.2 12.8,0 23.2,10.4 23.2,23.2 z"
       id="path81397" /><g
       id="g66749"><g
         style="fill:none;stroke:#4e9940;stroke-width:15;stroke-linecap:round;stroke-linejoin:round;stroke-miterlimit:4;stroke-dasharray:none"
         stroke-miterlimit="4"
         transform="translate(133.53063,-71.305736)"
         id="g66819"><path
           style="stroke-width:15"
           inkscape:connector-curvature="0"
           d="m 1250,313 16.1,158"
           id="path66679" /><path
           style="stroke-width:15"
           inkscape:connector-curvature="0"
           d="m 1230,441 35.9,46.6 16.1,7.17 31.4,-77.1"
           id="path66681" /></g></g></g><path
     style="fill:none;stroke:#4e9940;stroke-width:13;stroke-linecap:round;stroke-linejoin:round;stroke-miterlimit:4;stroke-dasharray:none"
     inkscape:connector-curvature="0"
     stroke-miterlimit="4"
     d="m 1400,451 0.289,186 -17.8,12.7 55.8,50.7 -71,7.61 2.54,10.1 63.4,35.5 -78.6,2.54 0,7.61 68.5,38 -25.4,10.1 3.94,361"
     id="path3417" /></g><path
   style="fill:none;stroke:#4e9940;stroke-width:13;stroke-linecap:round;stroke-linejoin:round;stroke-miterlimit:4;stroke-dasharray:none"
   inkscape:connector-curvature="0"
   stroke-miterlimit="4"
   d="m 2316.5247,983.42212 0,164.99998 -235,0"
   id="path3434"
   sodipodi:nodetypes="ccc" /><g
   style="fill:none;stroke:#4e9940;stroke-width:14;stroke-linecap:round;stroke-linejoin:round;stroke-miterlimit:4;stroke-dasharray:none"
   stroke-miterlimit="4"
   transform="translate(-346.15817,-280.10133)"
   id="g4226"><path
     style="stroke-width:14"
     inkscape:connector-curvature="0"
     d="m 2380,1382 0,84.3"
     id="path3436"
     sodipodi:nodetypes="cc" /><path
     style="stroke-width:14"
     inkscape:connector-curvature="0"
     d="m 2420,1382 0,82.5"
     id="path3438"
     sodipodi:nodetypes="cc" /></g><use
   x="0"
   y="0"
   width="4161.7725"
   height="2398.583"
   transform="translate(-360.26319,-313.18261)"
   xlink:href="#g4226"
   id="use4230" /><path
   style="fill:none;stroke:#000000;stroke-width:13;stroke-linecap:round;stroke-linejoin:round;stroke-miterlimit:4;stroke-dasharray:none"
   inkscape:connector-curvature="0"
   stroke-miterlimit="4"
   d="m 780.52473,554.42215 57.6,-0.34 c 10.6,-36.8 -1.76,-82.4 19.6,-82.2 0,0 -2.79,-2.67 93.7,53 50.89997,29.4 110.99997,29.5 110.99997,29.5"
   id="path3173" /><path
   style="fill:none;stroke:#4e9940;stroke-width:10;stroke-miterlimit:4;stroke-dasharray:none"
   inkscape:connector-curvature="0"
   stroke-miterlimit="4"
   d="m 922.12016,604.81537 a 13.458335,12.551361 0 1 1 -26.91667,0 13.458335,12.551361 0 1 1 26.91667,0 z"
   id="path3175" /><g
   id="layer11"
   transform="translate(1613.2989,334.31965)"
   stroke-miterlimit="4"
   display="none"
   style="fill:none;stroke:#be1e2d;stroke-width:13;stroke-linecap:round;stroke-linejoin:miter;stroke-miterlimit:4;stroke-dasharray:none;display:none"><g
     id="g68505"
     transform="translate(-2,0)"
     style="stroke-width:13"><path
       id="path68499"
       d="m 2060,741 0.634,71.7"
       transform="translate(-1982.7742,-592.89753)"
       inkscape:connector-curvature="0"
       style="stroke-width:13" /><path
       id="path68501"
       d="m 2030,775 66.6,-1.27"
       transform="translate(-1982.7742,-592.89753)"
       inkscape:connector-curvature="0"
       style="stroke-width:13" /></g><path
     id="path68503"
     d="m 39.7,511 69.8,-1.27"
     inkscape:connector-curvature="0"
     style="stroke-width:13" /></g><g
   id="layer12"
   transform="translate(1613.2989,334.31965)"
   stroke-miterlimit="4"
   display="none"
   style="fill:none;stroke:#be1e2d;stroke-width:13;stroke-linecap:round;stroke-linejoin:miter;stroke-miterlimit:4;stroke-dasharray:none;display:none"><g
     id="g68509"
     transform="translate(-2.8292922,328.48533)"
     style="stroke-width:13"><path
       id="path68511"
       d="m 2060,741 0.634,71.7"
       transform="translate(-1982.7742,-592.89753)"
       inkscape:connector-curvature="0"
       style="stroke-width:13" /><path
       id="path68513"
       d="m 2030,775 66.6,-1.27"
       transform="translate(-1982.7742,-592.89753)"
       inkscape:connector-curvature="0"
       style="stroke-width:13" /></g><path
     id="path68515"
     d="m 39.5,181 69.8,-1.27"
     inkscape:connector-curvature="0"
     style="stroke-width:13" /></g><g
   id="layer13"
   font-size="59.12285233px"
   font-weight="normal"
   transform="translate(1613.2989,334.31965)"
   font-stretch="normal"
   font-variant="normal"
   font-style="normal"
   stroke-miterlimit="4"
   display="none"
   style="font-size:59.12285233px;font-style:normal;font-variant:normal;font-weight:normal;font-stretch:normal;fill:#be1e2d;stroke:#be1e2d;stroke-width:2.5;stroke-miterlimit:4;stroke-dasharray:none;display:none;font-family:Serif"><text
   id="text68521"
   style="line-height:125%;letter-spacing:0px;word-spacing:0px;stroke-width:2.5"
   transform="scale(1.0092145,0.99086964)"
   line-height="125%"
   y="228.35022"
   x="50.366032"
   xml:space="preserve"
   sodipodi:linespacing="125%"><tspan
     id="tspan68523"
     style="font-size:135.13793945px;font-style:normal;font-variant:normal;font-weight:bold;font-stretch:normal;text-align:start;line-height:125%;writing-mode:lr-tb;text-anchor:start;fill:#be1e2d;stroke:#be1e2d;stroke-width:2.5;stroke-miterlimit:4;stroke-dasharray:none;font-family:LMMonoLtCond10"
     font-weight="bold"
     font-size="135.13793945px"
     font-style="normal"
     line-height="125%"
     font-stretch="normal"
     stroke-miterlimit="4"
     font-variant="normal"
     y="228.35022"
     x="50.366032">? </tspan></text>



<text
   id="text68533"
   style="line-height:125%;letter-spacing:0px;word-spacing:0px;stroke-width:2.5"
   xml:space="preserve"
   transform="scale(1.0092145,0.99086964)"
   line-height="125%"
   y="557.30243"
   x="50.70433"
   sodipodi:linespacing="125%"><tspan
     id="tspan68535"
     style="font-size:135.13793945px;font-style:normal;font-variant:normal;font-weight:bold;font-stretch:normal;text-align:start;line-height:125%;writing-mode:lr-tb;text-anchor:start;fill:#be1e2d;stroke:#be1e2d;stroke-width:2.5;stroke-miterlimit:4;stroke-dasharray:none;font-family:LMMonoLtCond10"
     font-weight="bold"
     font-size="135.13793945px"
     font-style="normal"
     line-height="125%"
     font-stretch="normal"
     stroke-miterlimit="4"
     font-variant="normal"
     y="557.30243"
     x="50.70433">? </tspan></text>



</g><g
   id="layer1"
   display="none"
   style="display:none"
   transform="translate(-369.47527,-258.57785)"><rect
     id="rect29613"
     rx="0.634"
     ry="1.14"
     height="175"
     width="270"
     stroke-miterlimit="4"
     y="1680"
     x="345"
     style="fill:none;stroke:#232052;stroke-width:5;stroke-linecap:butt;stroke-linejoin:bevel;stroke-miterlimit:4;stroke-dasharray:none;stroke-dashoffset:0" /></g><text
   xml:space="preserve"
   style="font-size:24px;font-style:normal;font-variant:normal;font-weight:normal;font-stretch:normal;line-height:125%;letter-spacing:0px;word-spacing:0px;fill:#000000;fill-opacity:1;stroke:none;font-family:Serif;-inkscape-font-specification:Serif"
   x="55.508057"
   y="565.95758"
   id="text3187"
   sodipodi:linespacing="125%"><tspan
     sodipodi:role="line"
     id="tspan3189"
     x="55.508057"
     y="565.95758"
     style="font-size:144px;fill:#ff0000">2 V</tspan></text>
<text
   sodipodi:linespacing="125%"
   id="text3191"
   y="563.18219"
   x="1223.9528"
   style="font-size:24px;font-style:normal;font-variant:normal;font-weight:normal;font-stretch:normal;line-height:125%;letter-spacing:0px;word-spacing:0px;fill:#000000;fill-opacity:1;stroke:none;font-family:Serif;-inkscape-font-specification:Serif"
   xml:space="preserve"><tspan
     style="font-size:144px;fill:#ff0000"
     y="563.18219"
     x="1223.9528"
     id="tspan3193"
     sodipodi:role="line">8 V</tspan></text>
<g
   id="g3984"
   transform="translate(-3.9808778e-7,262.19997)"><text
     sodipodi:linespacing="125%"
     id="text3197"
     y="-154.51006"
     x="1187.8726"
     style="font-size:24px;font-style:normal;font-variant:normal;font-weight:normal;font-stretch:normal;line-height:125%;letter-spacing:0px;word-spacing:0px;fill:#000000;fill-opacity:1;stroke:none;font-family:Serif;-inkscape-font-specification:Serif"
     xml:space="preserve"><tspan
       style="font-size:72px"
       y="-154.51006"
       x="1187.8726"
       id="tspan3199"
       sodipodi:role="line">This part is actually on the detector</tspan></text>
<rect
     y="-257.19998"
     x="1168.4447"
     height="155.42256"
     width="1357.172"
     id="rect3201"
     style="color:#000000;fill:none;stroke:#ff9b9b;stroke-width:10;stroke-linecap:round;stroke-linejoin:round;stroke-miterlimit:4;stroke-opacity:1;stroke-dasharray:none;stroke-dashoffset:0;marker:none;visibility:visible;display:inline;overflow:visible;enable-background:accumulate" /></g></svg>